{"glyphs":{"0":{"ha":742,"x_min":111,"x_max":657,"o":"m 386 977 q 638 675 555 977 q 657 503 657 581 l 657 481 q 500 43 657 191 q 389 0 446 0 l 379 0 q 133 290 217 0 q 111 471 111 384 l 111 503 q 324 965 127 874 q 386 977 351 977 m 189 487 q 327 96 189 222 q 386 77 361 77 q 552 287 486 77 q 580 490 580 383 q 454 869 580 738 q 386 897 422 897 l 382 897 q 197 610 258 897 q 189 487 189 528 z "},"1":{"ha":742,"x_min":85,"x_max":608,"o":"m 567 973 l 576 973 q 608 941 600 973 l 608 33 q 576 0 608 8 l 567 0 q 534 33 543 0 l 534 763 l 532 763 q 321 565 430 635 q 126 450 201 481 l 117 450 q 85 482 93 450 l 85 491 q 185 565 85 517 q 434 760 304 633 q 537 956 534 877 q 567 973 555 973 z "},"2":{"ha":742,"x_min":117,"x_max":648,"o":"m 378 977 l 393 977 q 633 781 568 977 q 648 650 642 734 q 248 77 648 498 l 248 74 l 616 74 q 648 36 643 74 q 610 0 648 5 l 153 0 q 117 39 123 0 q 197 131 117 60 q 298 241 197 135 q 571 644 555 532 q 378 903 571 903 q 197 594 235 903 q 194 511 194 549 l 194 496 q 155 452 188 452 q 117 490 117 462 q 304 962 125 886 q 378 977 332 977 z "},"3":{"ha":742,"x_min":111,"x_max":636,"o":"m 357 977 l 390 977 q 618 835 553 977 q 636 728 636 772 l 636 680 q 532 481 636 526 l 532 475 q 636 276 636 404 l 636 250 q 405 0 636 0 l 366 0 q 113 208 153 0 q 111 258 111 243 l 111 282 q 149 318 111 312 q 188 237 188 318 q 274 92 188 140 q 381 74 319 74 q 532 125 504 74 q 562 264 562 178 q 437 439 562 398 q 354 454 404 448 q 336 484 336 473 l 336 493 q 414 529 336 529 q 562 680 562 529 l 562 704 q 494 873 562 832 q 372 903 450 903 q 197 799 232 903 q 182 695 188 770 q 152 677 164 677 l 143 677 q 111 710 119 677 l 111 730 q 274 965 111 909 q 357 977 317 977 z "},"4":{"ha":742,"x_min":105,"x_max":604,"o":"m 344 973 q 379 932 379 966 q 205 613 330 825 q 182 555 182 571 l 182 545 q 433 525 224 525 l 527 525 l 527 929 q 568 973 531 973 q 604 932 604 966 l 604 41 q 565 0 597 0 q 527 53 527 0 l 527 448 q 138 487 156 448 q 105 545 105 513 l 105 551 q 241 826 105 606 q 326 970 314 969 l 344 973 z "},"5":{"ha":742,"x_min":106,"x_max":640,"o":"m 342 973 l 596 973 q 631 938 631 966 l 631 932 q 593 897 631 905 q 478 899 520 899 l 395 899 q 195 852 210 899 q 183 805 185 852 l 183 752 q 375 708 183 708 q 631 575 631 708 q 640 324 631 536 q 540 26 640 92 q 384 0 507 0 l 316 0 q 124 103 153 0 q 109 197 109 151 l 109 242 q 139 265 121 265 l 151 265 q 183 203 183 265 q 239 85 191 85 q 292 77 239 79 l 448 77 q 564 313 564 77 q 557 557 564 347 q 522 613 557 606 q 245 637 510 631 q 142 675 168 650 q 106 787 106 703 q 189 944 106 907 q 342 973 233 973 z "},"6":{"ha":742,"x_min":135,"x_max":653,"o":"m 399 977 q 437 936 430 977 q 363 847 437 917 q 212 486 212 667 q 319 115 212 265 q 390 77 359 77 l 404 77 q 555 252 477 77 q 576 355 576 310 l 576 361 q 496 450 576 450 q 313 429 444 450 q 283 462 283 442 l 283 471 q 375 515 283 509 q 496 527 442 524 q 647 409 611 527 l 653 358 q 508 45 653 197 q 399 0 449 0 q 141 403 201 0 q 135 489 138 465 q 380 971 135 735 l 399 977 z "},"7":{"ha":742,"x_min":118,"x_max":643,"o":"m 159 973 q 614 888 368 888 q 643 849 643 876 q 262 153 643 840 q 168 3 184 3 q 157 0 161 3 q 118 39 118 10 q 301 378 118 54 l 540 814 l 536 814 q 153 894 389 814 q 118 938 118 910 q 159 973 125 973 z "},"8":{"ha":742,"x_min":113,"x_max":637,"o":"m 371 977 l 374 977 q 629 802 580 977 q 637 720 637 762 l 637 684 q 546 486 637 537 q 534 477 534 484 q 637 273 637 406 l 637 255 q 495 12 637 57 q 371 0 437 0 q 137 134 201 0 q 113 249 113 188 l 113 302 q 217 500 113 447 q 113 699 113 574 l 113 732 q 243 962 113 913 q 371 977 291 977 m 187 708 q 306 539 187 585 q 374 527 351 527 l 382 527 q 560 654 560 527 q 564 693 564 680 q 460 888 564 859 q 386 900 433 900 l 356 900 q 187 708 187 900 m 187 284 q 288 89 187 123 q 371 77 330 77 l 382 77 q 564 269 564 77 q 425 444 564 406 q 374 450 401 450 l 353 450 q 191 320 191 450 q 187 284 187 311 z "},"9":{"ha":742,"x_min":113,"x_max":639,"o":"m 545 973 q 618 900 585 973 q 630 768 630 857 l 630 559 q 639 291 630 522 q 533 20 639 74 q 392 0 508 0 l 321 0 q 130 103 159 0 q 115 197 115 151 l 115 241 q 145 264 127 264 l 157 264 q 189 203 189 264 q 245 85 197 85 q 298 77 245 79 l 454 77 q 562 271 562 77 l 562 309 q 553 564 562 357 q 283 629 553 629 q 145 673 216 629 q 113 785 113 701 q 172 929 113 887 q 286 970 204 970 l 469 970 q 545 973 496 970 m 189 803 l 189 753 q 224 714 189 725 q 474 694 290 704 q 553 670 522 684 l 553 821 q 536 897 553 873 q 515 894 519 897 q 386 897 438 897 l 324 897 q 210 861 220 897 q 189 803 189 847 z "},"\u0000":{"ha":0,"x_min":0,"x_max":0,"o":""},"\u001d":{"ha":0,"x_min":0,"x_max":0,"o":""}," ":{"ha":746,"x_min":0,"x_max":0,"o":""}," ":{"ha":746,"x_min":0,"x_max":0,"o":""},"!":{"ha":366,"x_min":115,"x_max":221,"o":"m 163 100 l 173 100 q 221 52 221 92 l 221 42 q 173 -6 212 -6 l 163 -6 q 115 42 115 3 l 115 52 q 163 100 123 100 m 162 990 l 171 990 q 214 875 201 985 l 201 215 q 171 163 198 163 l 162 163 q 134 197 134 172 l 134 642 q 162 990 142 990 z "},"\"":{"ha":302,"x_min":22,"x_max":255,"o":"m 238 1059 q 253 960 253 1050 q 252 916 253 939 q 255 873 255 890 q 248 834 255 845 l 247 831 q 222 817 235 817 q 205 823 214 817 l 201 825 q 186 886 186 836 q 188 921 186 901 q 184 1014 184 981 q 187 1050 184 1044 q 216 1067 201 1067 q 235 1061 226 1067 l 238 1059 m 77 1059 q 92 960 92 1050 q 91 916 92 939 q 94 873 94 890 q 87 834 94 845 l 85 831 q 60 817 73 817 q 44 823 52 817 l 40 825 q 25 886 25 836 q 26 921 25 901 q 22 1014 22 981 q 26 1050 22 1044 q 55 1067 40 1067 q 74 1061 64 1067 l 77 1059 z "},"#":{"ha":972,"x_min":24,"x_max":898,"o":"m 415 784 l 418 784 q 450 757 450 781 q 404 556 450 731 l 597 556 q 654 773 646 766 q 675 784 665 784 l 681 784 q 711 754 711 778 q 665 556 711 738 l 865 556 q 898 526 898 549 l 898 518 q 871 491 892 491 l 648 491 l 602 293 l 803 293 q 836 258 830 293 q 806 228 827 228 l 589 228 q 543 46 583 228 q 507 0 532 0 l 505 0 q 472 27 472 3 q 518 228 472 53 l 326 228 q 269 11 277 18 q 247 0 257 0 l 241 0 q 212 30 212 6 q 258 228 212 46 l 57 228 q 24 258 24 235 l 24 266 q 52 293 30 293 l 274 293 l 320 491 l 119 491 q 87 526 92 491 q 117 556 96 556 l 334 556 q 380 738 340 556 q 415 784 391 784 m 388 491 q 342 293 380 450 l 534 293 q 581 491 543 334 l 388 491 z "},"$":{"ha":604,"x_min":23,"x_max":547,"o":"m 282 817 l 288 817 q 320 787 320 812 l 320 716 q 505 740 420 740 l 514 740 q 547 711 547 736 l 547 706 q 476 677 547 677 q 320 650 418 677 l 320 424 q 458 271 458 308 l 458 253 q 320 121 458 179 l 320 29 q 288 0 315 0 l 282 0 q 250 29 250 4 l 250 100 q 61 77 161 77 l 56 77 q 23 105 23 81 l 23 111 q 94 140 23 140 q 250 163 150 140 l 250 400 q 179 458 243 400 q 111 555 111 507 l 111 558 q 250 690 111 634 l 250 787 q 282 817 254 817 m 182 558 l 182 553 q 250 485 182 538 l 250 622 q 182 558 182 587 m 320 334 l 320 193 l 323 193 q 391 256 391 229 q 320 334 391 277 z "},"%":{"ha":1099,"x_min":80,"x_max":1053,"o":"m 1014 973 l 1018 973 q 1053 938 1053 967 l 1053 934 q 1002 869 1053 913 q 132 2 741 622 l 119 0 l 115 0 q 80 35 80 6 l 80 39 q 327 282 80 60 q 1002 971 990 966 l 1014 973 m 341 932 q 356 932 349 932 q 550 806 480 932 q 569 723 569 758 l 569 700 q 461 534 569 592 q 353 501 406 501 l 330 501 q 142 623 216 501 q 113 727 113 674 q 248 911 113 838 q 341 932 301 932 m 190 738 l 190 719 q 252 609 190 655 q 335 580 294 580 l 349 580 q 486 659 437 580 q 494 704 494 688 l 494 718 q 391 849 494 809 q 351 855 364 855 l 332 855 q 210 781 260 855 q 190 738 190 745 m 746 480 l 769 480 q 957 362 883 480 q 986 254 986 307 q 886 54 986 119 q 792 33 832 33 q 583 168 657 33 q 564 250 564 215 l 564 273 q 672 456 564 381 q 746 480 694 480 m 639 269 l 639 255 q 709 107 639 164 q 748 101 735 101 l 767 101 q 889 176 839 101 q 909 243 909 211 l 909 262 q 848 376 909 326 q 764 406 805 406 l 750 406 q 741 406 746 406 q 648 315 692 406 q 639 269 639 285 z "},"&":{"ha":915,"x_min":38,"x_max":812,"o":"m 479 973 l 536 973 q 653 920 629 973 q 660 890 660 905 l 660 876 q 388 551 660 782 q 711 336 530 422 q 756 507 756 426 q 784 525 771 525 q 812 490 812 517 l 812 477 q 768 310 812 398 q 812 265 812 294 l 812 256 q 784 224 812 232 q 728 245 779 224 q 552 83 640 135 q 271 0 404 0 l 249 0 q 38 153 68 0 l 38 177 q 289 557 38 347 l 289 560 q 233 708 233 639 l 233 711 q 359 956 233 907 q 479 973 412 973 m 294 737 l 294 717 q 292 713 294 713 q 340 602 292 665 q 571 826 463 701 q 601 885 601 873 q 512 899 569 899 q 319 840 357 899 q 294 737 294 787 m 97 177 q 218 77 97 96 q 263 74 226 77 q 646 248 465 74 q 669 277 646 250 q 348 492 489 366 q 336 505 348 496 q 97 177 97 307 z "},"'":{"ha":151,"x_min":28,"x_max":100,"o":"m 83 1055 q 98 956 98 1046 q 97 911 98 935 q 100 869 100 886 q 93 830 100 841 l 92 827 q 66 813 79 813 q 50 819 58 813 l 46 821 q 31 882 31 831 q 33 917 31 897 q 28 1010 28 977 q 32 1046 28 1040 q 61 1063 46 1063 q 80 1057 71 1063 l 83 1055 z "},"(":{"ha":405,"x_min":110,"x_max":381,"o":"m 351 -233 l 343 -233 q 199 -5 311 -233 q 110 399 110 209 l 110 423 q 327 1050 110 734 q 343 1055 336 1055 l 351 1055 q 381 1025 374 1055 l 381 1017 q 311 898 381 1010 q 178 407 178 651 q 381 -190 178 115 l 381 -203 q 351 -233 381 -226 z "},")":{"ha":445,"x_min":31,"x_max":302,"o":"m 61 1055 l 69 1055 q 213 827 101 1055 q 302 423 302 613 l 302 399 q 85 -228 302 88 q 69 -233 77 -233 l 61 -233 q 31 -203 39 -233 l 31 -195 q 102 -76 31 -189 q 235 415 235 171 q 31 1012 235 707 l 31 1025 q 61 1055 31 1048 z "},"*":{"ha":354,"x_min":28,"x_max":313,"o":"m 170 1013 l 172 1013 q 194 991 194 1013 l 194 902 q 292 935 196 902 q 313 910 309 935 l 313 907 q 221 859 313 883 q 210 850 210 853 q 267 764 267 777 q 243 742 267 746 q 183 815 224 742 q 170 829 181 815 q 99 742 113 742 l 94 742 q 72 764 72 742 q 129 850 72 777 q 37 888 124 857 q 28 907 28 899 l 28 910 q 50 935 33 935 l 148 902 l 148 991 q 170 1013 148 1013 z "},"+":{"ha":715,"x_min":-7,"x_max":675,"o":"m 290 304 l 32 304 q -7 342 2 304 l -7 353 q 32 392 -7 382 l 290 392 l 290 650 q 328 689 290 680 l 339 689 q 378 650 368 689 l 378 392 l 635 392 q 675 353 665 392 l 675 342 q 635 304 675 313 l 378 304 l 378 46 q 339 7 378 16 l 328 7 q 290 46 299 7 l 290 304 z "},",":{"ha":271,"x_min":-77,"x_max":178,"o":"m 117 112 l 127 112 q 178 86 178 108 q -12 -125 178 -76 l -26 -125 q -77 -99 -77 -121 l -77 -92 q -5 -73 -77 -81 q 117 100 66 -37 q 105 109 105 106 q 117 112 105 112 z "},"-":{"ha":551,"x_min":5,"x_max":460,"o":"m 31 395 l 435 395 q 460 356 454 395 l 460 345 q 435 307 460 316 l 31 307 q 5 345 12 307 l 5 356 q 31 395 5 385 z "},"­":{"ha":551,"x_min":5,"x_max":460,"o":"m 31 395 l 435 395 q 460 356 454 395 l 460 345 q 435 307 460 316 l 31 307 q 5 345 12 307 l 5 356 q 31 395 5 385 z "},".":{"ha":257,"x_min":25,"x_max":163,"o":"m 85 176 l 102 176 q 163 107 150 176 q 98 43 150 43 l 81 43 q 25 116 25 54 q 85 176 43 176 z "},"/":{"ha":451,"x_min":31,"x_max":488,"o":"m 75 5 q 64 2 69 2 q 35 19 50 2 l 32 26 q 31 31 31 28 q 77 168 31 55 q 432 1146 425 1143 l 444 1152 q 456 1155 450 1155 q 484 1138 470 1155 l 488 1131 q 488 1126 488 1129 q 443 989 488 1102 q 87 11 94 14 l 75 5 z "},":":{"ha":378,"x_min":112,"x_max":254,"o":"m 176 142 l 193 142 q 254 73 241 142 q 189 9 241 9 l 172 9 q 116 82 116 20 q 176 142 134 142 m 172 613 l 189 613 q 250 544 237 613 q 185 479 237 479 l 168 479 q 112 553 112 490 q 172 613 130 613 z "},";":{"ha":402,"x_min":6,"x_max":268,"o":"m 191 613 l 208 613 q 268 544 255 613 q 203 479 255 479 l 186 479 q 130 553 130 490 q 191 613 148 613 m 200 112 l 210 112 q 260 86 260 108 q 71 -125 260 -76 l 57 -125 q 6 -99 6 -121 l 6 -92 q 85 -69 6 -81 q 158 19 149 -37 q 200 112 171 87 z "},";":{"ha":402,"x_min":6,"x_max":268,"o":"m 191 613 l 208 613 q 268 544 255 613 q 203 479 255 479 l 186 479 q 130 553 130 490 q 191 613 148 613 m 200 112 l 210 112 q 260 86 260 108 q 71 -125 260 -76 l 57 -125 q 6 -99 6 -121 l 6 -92 q 85 -69 6 -81 q 158 19 149 -37 q 200 112 171 87 z "},"<":{"ha":512,"x_min":3,"x_max":441,"o":"m 3 481 l 3 498 q 117 587 3 519 q 404 802 383 802 l 407 802 q 437 772 437 798 l 437 767 q 153 533 437 745 l 93 490 l 435 241 q 441 225 441 233 l 441 220 q 411 190 436 190 l 408 190 q 79 416 389 190 q 3 481 3 461 z "},"=":{"ha":673,"x_min":52,"x_max":572,"o":"m 81 615 l 543 615 q 572 585 565 615 l 572 577 q 543 547 572 555 l 81 547 q 52 577 59 547 l 52 585 q 81 615 52 608 m 81 429 l 543 429 q 572 399 565 429 l 572 391 q 543 361 572 368 l 81 361 q 52 391 59 361 l 52 399 q 81 429 52 421 z "},">":{"ha":583,"x_min":83,"x_max":521,"o":"m 521 511 l 521 494 q 407 405 521 473 q 120 190 141 190 l 117 190 q 87 220 87 195 l 87 225 q 372 459 87 248 l 431 503 l 89 751 q 83 767 83 760 l 83 772 q 113 802 88 802 l 116 802 q 445 576 135 802 q 521 511 521 531 z "},"?":{"ha":611,"x_min":79,"x_max":530,"o":"m 317 1007 q 526 791 494 1007 q 530 726 530 767 l 530 691 q 402 441 530 623 q 336 186 336 317 l 317 175 l 293 175 q 274 191 286 175 l 274 233 q 445 626 274 383 q 464 691 464 661 l 464 730 q 359 949 464 907 l 326 953 l 288 953 q 151 803 189 953 q 146 741 146 764 l 146 684 q 298 622 146 622 l 321 622 l 336 606 l 336 587 q 307 568 336 581 q 79 688 79 568 l 79 734 q 274 1007 79 970 l 317 1007 m 302 96 l 315 96 q 357 47 348 96 q 312 2 348 2 l 300 2 q 260 54 260 9 q 302 96 273 96 z "},"@":{"ha":1475,"x_min":105,"x_max":1341,"o":"m 823 973 l 853 973 q 1296 734 1200 973 q 1341 442 1341 612 l 1341 410 q 1135 30 1341 127 q 859 -18 1027 -18 q 412 152 584 -18 q 335 335 335 243 l 335 354 q 503 608 335 493 q 855 703 659 703 q 986 659 927 703 q 1021 703 986 703 l 1025 703 q 1057 666 1051 703 l 1057 184 q 1021 142 1055 142 q 986 174 986 149 l 986 500 q 913 621 986 592 q 862 631 882 631 l 849 631 q 456 477 606 631 q 406 350 406 409 l 406 330 q 574 118 406 216 q 864 54 705 54 q 1232 216 1160 54 q 1270 406 1270 298 l 1270 449 q 1092 859 1270 777 q 866 902 990 902 l 808 902 q 300 720 479 902 q 176 359 176 577 l 176 328 q 500 -140 176 21 q 713 -203 663 -203 q 844 -216 781 -216 q 868 -250 868 -229 q 833 -284 864 -284 l 825 -284 q 372 -149 599 -284 q 105 330 105 35 l 105 356 q 466 913 105 761 q 823 973 630 973 z "},"A":{"ha":1078,"x_min":28,"x_max":999,"o":"m 509 974 l 521 974 q 951 345 806 974 q 999 33 999 115 q 966 0 994 0 l 958 0 q 919 100 919 0 q 825 531 878 370 q 512 900 696 900 q 113 526 230 900 l 509 526 q 550 493 550 521 l 550 481 q 509 448 550 453 l 69 448 q 28 484 28 452 q 176 812 66 677 q 509 974 314 974 z "},"B":{"ha":1173,"x_min":115,"x_max":1084,"o":"m 147 972 l 538 972 q 810 863 703 972 q 836 792 836 828 l 836 766 q 827 713 836 744 q 1054 586 980 675 q 1084 504 1084 538 l 1084 471 q 595 106 1084 240 q 144 0 427 50 l 141 0 q 115 33 115 14 l 115 41 q 229 92 115 77 q 810 262 605 171 q 981 383 918 313 q 1010 486 1010 431 l 1010 489 q 766 651 1010 593 l 760 651 q 456 630 643 651 q 424 665 424 640 l 424 671 q 530 713 424 713 q 733 724 627 724 l 745 724 q 762 786 760 724 q 589 892 762 853 q 507 898 555 898 l 189 898 l 189 454 q 156 421 189 429 l 147 421 q 115 454 123 421 l 115 939 q 147 972 115 964 z "},"C":{"ha":1054,"x_min":50,"x_max":1021,"o":"m 515 972 l 526 972 q 562 934 556 972 q 488 895 562 895 q 241 777 374 895 q 126 492 126 647 l 126 483 q 727 94 126 186 q 1004 71 822 83 q 1021 35 1021 54 q 983 0 1021 5 l 980 0 q 321 127 622 0 q 50 486 50 259 q 300 916 50 755 q 515 972 411 972 z "},"D":{"ha":1179,"x_min":121,"x_max":1093,"o":"m 157 972 l 690 972 q 1037 813 884 972 q 1093 660 1093 736 q 911 307 1093 427 q 510 106 805 216 q 154 0 306 33 q 121 41 127 0 l 121 930 q 157 972 125 972 m 198 898 l 198 85 q 734 283 511 174 q 1017 618 1017 433 l 1017 669 q 893 836 1017 755 q 654 898 798 898 l 198 898 z "},"E":{"ha":1042,"x_min":50,"x_max":1019,"o":"m 512 972 l 521 972 q 559 937 559 967 q 491 895 559 895 q 218 754 355 895 q 126 524 126 623 l 517 524 q 559 489 559 519 l 559 483 q 517 448 559 452 l 126 448 q 227 274 126 371 q 385 180 297 216 q 662 103 506 132 q 1001 71 806 83 q 1019 41 1019 53 l 1019 33 q 986 0 1019 8 l 977 0 q 262 156 570 0 q 50 471 50 287 l 50 500 q 253 886 50 725 q 512 972 377 972 z "},"F":{"ha":964,"x_min":77,"x_max":1046,"o":"m 540 972 l 1014 972 q 1046 939 1038 972 l 1046 930 q 1014 898 1042 898 l 578 898 q 169 610 275 898 q 154 524 154 547 l 545 524 q 587 489 587 520 l 587 483 q 545 448 587 452 l 151 448 l 151 38 q 119 0 146 0 l 110 0 q 77 33 85 0 l 77 500 q 213 827 77 677 q 540 972 359 972 z "},"G":{"ha":1092,"x_min":29,"x_max":989,"o":"m 506 972 l 518 972 q 551 939 551 967 l 551 930 q 474 895 551 895 q 291 816 402 895 q 112 489 168 716 q 103 397 103 419 q 212 156 103 283 q 515 74 304 74 q 871 227 793 74 q 913 330 913 308 l 913 448 l 839 448 q 479 518 555 448 q 471 545 471 530 q 515 580 477 580 q 889 522 585 522 q 957 524 943 524 q 989 483 989 514 l 989 330 q 907 144 989 273 q 536 0 798 0 l 492 0 q 94 189 193 0 q 29 392 29 301 l 29 406 q 224 857 29 644 q 506 972 355 972 z "},"H":{"ha":1204,"x_min":112,"x_max":1081,"o":"m 1040 972 l 1048 972 q 1081 939 1073 972 l 1081 256 q 1042 224 1081 229 q 1007 262 1012 224 l 1007 515 q 616 342 841 391 q 221 292 416 292 l 186 292 l 186 38 q 153 0 180 0 l 144 0 q 112 33 120 0 l 112 715 q 150 748 112 743 q 186 713 186 741 l 186 365 q 860 509 565 365 q 1007 616 926 542 l 1007 939 q 1040 972 1007 964 z "},"I":{"ha":342,"x_min":121,"x_max":198,"o":"m 157 972 l 163 972 q 198 922 198 972 l 198 50 q 163 0 198 0 l 159 0 q 121 35 121 5 l 121 937 q 157 972 128 972 z "},"J":{"ha":956,"x_min":66,"x_max":1032,"o":"m 997 972 l 1000 972 q 1032 939 1032 967 l 1032 922 q 588 683 896 763 l 588 483 q 308 44 588 161 q 102 0 198 0 q 66 38 73 0 q 137 77 66 77 q 373 162 254 85 q 481 307 464 248 q 514 527 514 382 l 514 665 q 117 627 328 627 q 66 669 66 627 q 102 704 75 704 l 137 704 q 944 937 654 704 q 997 972 976 972 z "},"K":{"ha":1126,"x_min":112,"x_max":1084,"o":"m 1046 972 l 1048 972 q 1084 937 1084 964 q 966 804 1084 908 q 568 548 763 620 q 289 480 440 496 l 1075 62 q 1084 38 1084 41 q 1048 0 1077 0 l 1046 0 q 851 97 1028 0 q 191 445 356 356 l 186 445 l 186 56 q 162 24 186 36 l 144 24 q 112 56 120 24 l 112 736 q 150 772 112 766 q 186 739 186 764 l 186 548 l 189 548 q 1027 969 632 548 l 1046 972 z "},"L":{"ha":1130,"x_min":117,"x_max":1089,"o":"m 155 972 l 159 972 q 194 922 194 972 l 194 262 q 394 138 194 205 q 1060 74 645 74 q 1089 35 1089 62 q 1054 0 1081 0 l 1013 0 q 146 191 321 0 q 117 271 117 227 l 117 937 q 155 972 117 967 z "},"M":{"ha":1204,"x_min":112,"x_max":1081,"o":"m 1040 972 l 1048 972 q 1081 939 1073 972 l 1081 256 q 1042 224 1081 229 q 1007 262 1012 224 l 1007 728 l 1004 728 q 592 224 792 224 q 189 568 407 224 l 186 568 l 186 38 q 153 0 180 0 l 144 0 q 112 33 120 0 l 112 715 q 150 748 112 743 q 221 654 179 748 q 586 300 441 300 l 607 300 q 863 598 702 300 q 1013 957 948 768 q 1040 972 1028 972 z "},"N":{"ha":1204,"x_min":112,"x_max":1081,"o":"m 1040 972 l 1048 972 q 1081 939 1081 965 l 1081 256 q 1040 224 1081 227 q 186 625 655 224 l 186 33 q 153 0 186 8 l 144 0 q 112 33 120 0 l 112 715 q 147 748 112 740 l 150 748 q 248 669 169 748 q 566 445 433 518 q 1007 300 836 300 l 1007 934 q 1040 972 1013 972 z "},"O":{"ha":1107,"x_min":29,"x_max":1001,"o":"m 506 972 l 524 972 q 954 630 801 972 q 1001 401 1001 504 q 857 92 1001 238 q 536 0 749 0 l 494 0 q 88 200 185 0 q 29 404 29 304 q 197 827 29 623 q 506 972 335 972 m 106 418 l 106 389 q 215 156 106 275 q 515 74 302 74 q 883 250 814 74 q 924 389 924 327 l 924 410 q 783 772 924 589 q 515 898 663 898 q 141 589 270 898 q 106 418 106 484 z "},"P":{"ha":1123,"x_min":121,"x_max":1090,"o":"m 154 972 l 692 972 q 1069 857 937 972 q 1090 807 1090 825 l 1090 781 q 943 648 1090 702 q 380 448 726 557 q 345 480 345 456 l 345 492 q 460 551 345 524 q 993 757 886 694 q 1017 798 1017 766 q 819 886 1017 838 q 640 898 741 898 l 195 898 l 195 38 q 163 0 190 0 l 154 0 q 121 33 121 7 l 121 939 q 154 972 121 964 z "},"Q":{"ha":1111,"x_min":29,"x_max":995,"o":"m 503 972 l 518 972 q 960 598 810 972 q 992 404 992 485 q 948 239 992 317 q 924 230 933 230 q 886 262 886 235 l 886 274 q 916 386 916 352 l 916 424 q 774 774 916 591 q 509 898 656 898 q 138 586 265 898 q 103 406 103 477 q 209 165 103 291 q 515 83 296 83 q 792 147 699 83 l 792 150 q 692 259 692 250 l 692 271 q 715 303 692 291 l 733 303 q 833 215 753 303 q 995 44 995 55 l 995 33 q 963 0 986 0 l 954 0 q 845 94 937 0 q 545 9 734 9 l 527 9 q 512 6 517 9 l 494 9 l 468 9 q 73 233 173 9 q 29 397 29 322 l 29 410 q 220 857 29 646 q 444 966 357 966 q 503 972 444 970 z "},"R":{"ha":1118,"x_min":121,"x_max":1093,"o":"m 159 972 l 696 972 q 1061 866 926 972 q 1093 792 1093 834 q 964 656 1093 703 q 469 477 754 566 l 469 471 q 861 209 850 222 q 869 182 869 196 q 837 150 859 150 l 825 150 q 354 463 810 150 q 345 489 345 473 q 454 548 345 524 q 1005 763 896 696 q 1017 786 1017 775 l 1017 795 q 793 889 1017 846 q 640 898 739 898 l 198 898 l 198 53 q 163 0 198 0 l 159 0 q 121 35 121 5 l 121 937 q 159 972 121 967 z "},"S":{"ha":849,"x_min":-58,"x_max":913,"o":"m 843 972 l 876 972 q 913 937 913 967 l 913 934 q 884 898 905 898 q 242 674 242 898 l 242 665 q 472 504 242 593 q 690 262 690 404 q 124 6 690 48 q -12 0 106 0 l -23 0 q -58 38 -52 0 q -2 74 -58 74 q 513 156 269 74 q 613 256 613 205 l 613 268 q 342 477 613 375 q 165 671 165 559 q 843 972 165 972 z "},"T":{"ha":944,"x_min":54,"x_max":1025,"o":"m 984 972 l 990 972 q 1025 934 1019 972 q 902 819 1025 901 q 669 707 829 766 q 578 683 587 683 l 578 41 q 543 0 574 0 l 536 0 q 501 41 505 0 l 501 663 l 498 663 q 127 627 309 627 l 95 627 q 54 669 54 627 q 104 704 54 704 l 157 704 q 863 880 556 704 q 972 969 866 880 q 984 972 977 972 z "},"U":{"ha":1063,"x_min":81,"x_max":1053,"o":"m 1012 972 l 1015 972 q 1053 937 1053 967 q 895 445 986 670 q 729 156 827 287 q 414 0 603 0 l 382 0 q 132 200 243 0 q 81 441 81 302 l 81 698 q 123 748 81 748 q 158 707 154 748 l 158 406 q 314 97 158 219 q 399 74 362 74 q 697 244 592 74 q 873 598 768 328 q 983 954 932 772 q 1012 972 996 972 z "},"V":{"ha":1137,"x_min":112,"x_max":1081,"o":"m 1040 972 l 1048 972 q 1081 939 1073 972 l 1081 925 q 533 79 1081 313 q 147 0 321 0 l 144 0 q 112 33 112 5 l 112 715 q 150 748 112 743 q 186 713 186 741 l 186 77 q 524 156 302 77 q 1007 945 1007 365 q 1040 972 1021 972 z "},"W":{"ha":1207,"x_min":112,"x_max":1084,"o":"m 1042 972 l 1051 972 q 1084 934 1078 972 l 1084 259 q 1048 224 1077 224 q 610 424 849 224 q 450 180 547 296 q 159 0 288 0 l 147 0 q 112 50 112 0 l 112 704 q 153 748 117 748 q 189 713 189 741 l 189 79 q 513 397 350 127 q 586 522 570 522 l 601 524 q 686 459 614 524 q 1007 303 890 303 l 1010 303 l 1010 939 q 1042 972 1010 964 z "},"X":{"ha":980,"x_min":-60,"x_max":912,"o":"m 874 972 l 877 972 q 912 937 902 972 q 574 389 912 688 q 909 47 909 60 q 912 38 909 44 q 877 0 905 0 l 874 0 q 803 56 849 0 l 515 342 q 20 15 260 142 q -18 0 -13 0 l -27 0 q -60 41 -56 0 q 35 109 -60 67 q 462 392 200 199 l 462 395 q 164 698 165 692 l 164 713 q 199 748 171 748 q 273 689 224 748 l 520 445 q 739 671 665 569 q 838 951 838 821 q 874 972 851 972 z "},"Y":{"ha":885,"x_min":-60,"x_max":912,"o":"m 871 972 l 880 972 q 912 937 904 972 q 747 636 912 907 q -9 0 321 0 l -24 0 q -60 35 -60 8 q 35 79 -60 79 q 311 227 142 92 q 471 392 450 357 q 167 698 167 690 l 164 713 q 205 748 173 748 q 314 651 226 748 l 520 448 q 827 922 699 684 q 871 972 844 972 z "},"Z":{"ha":876,"x_min":-8,"x_max":961,"o":"m 248 972 l 928 972 q 961 939 953 972 l 961 930 q 867 863 961 905 q 363 518 625 732 q 151 280 168 330 q 68 74 79 176 l 705 74 q 737 41 729 74 l 737 33 q 705 0 737 8 l 24 0 q -8 33 -8 5 l -8 53 q 584 781 -8 370 q 775 895 701 854 l 775 898 l 248 898 q 216 930 216 903 l 216 939 q 248 972 216 964 z "},"[":{"ha":514,"x_min":9,"x_max":454,"o":"m 45 1099 q 53 1099 48 1099 q 75 1098 62 1099 q 281 1099 205 1099 q 389 1097 389 1099 l 393 1087 q 395 1068 395 1079 q 393 1044 395 1058 l 391 1039 q 368 1031 389 1031 q 346 1033 359 1031 q 139 1031 216 1031 q 77 1032 101 1031 l 77 1010 q 75 938 77 979 q 77 254 77 506 q 76 -48 77 37 q 90 -50 82 -49 q 326 -48 239 -48 q 448 -51 448 -48 l 452 -60 q 454 -79 454 -68 q 452 -103 454 -90 l 450 -109 q 424 -116 448 -116 q 399 -115 413 -116 q 163 -116 250 -116 q 62 -115 92 -116 q 45 -121 55 -121 q 22 -113 35 -121 l 16 -108 q 9 -32 9 -100 q 10 40 9 -1 q 9 724 9 472 q 12 1082 9 1078 l 21 1091 q 40 1099 29 1099 q 45 1099 42 1099 z "},"\\":{"ha":528,"x_min":43,"x_max":465,"o":"m 459 18 q 433 3 452 3 q 419 5 427 3 l 412 9 q 361 148 398 16 q 43 1140 43 1123 l 50 1152 q 75 1167 57 1167 q 90 1165 82 1167 l 97 1161 q 148 1023 111 1154 q 465 31 465 47 l 459 18 z "},"]":{"ha":514,"x_min":9,"x_max":454,"o":"m 422 -127 q 412 -128 418 -128 q 389 -126 402 -128 q 178 -128 254 -128 q 74 -125 75 -128 l 71 -115 q 68 -97 68 -107 q 71 -73 68 -86 l 73 -67 q 95 -60 75 -60 q 117 -62 104 -60 q 328 -60 252 -60 q 387 -60 363 -60 l 387 -38 q 388 34 387 -7 q 387 718 387 466 q 387 1020 387 935 q 373 1021 381 1020 q 132 1019 220 1019 q 15 1023 16 1019 l 12 1032 q 9 1050 9 1040 q 12 1074 9 1061 l 14 1080 q 39 1087 16 1087 q 64 1086 50 1087 q 304 1088 217 1088 q 401 1086 372 1088 q 418 1093 408 1093 q 441 1085 429 1093 l 447 1079 q 454 1003 454 1072 q 453 931 454 972 q 454 247 454 499 q 452 -111 454 -107 l 441 -120 q 423 -127 434 -127 l 422 -127 z "},"^":{"ha":465,"x_min":77,"x_max":353,"o":"m 207 946 l 223 946 q 313 832 245 946 q 353 762 353 783 l 353 759 q 323 729 349 729 l 318 729 q 258 797 296 729 l 215 857 l 128 734 q 112 729 119 729 l 106 729 q 77 759 77 734 l 77 762 q 142 870 77 781 q 207 946 186 946 z "},"_":{"ha":694,"x_min":0,"x_max":689,"o":"m 39 -64 l 650 -64 q 689 -94 679 -64 l 689 -102 q 650 -132 689 -124 l 39 -132 q 0 -102 10 -132 l 0 -94 q 39 -64 0 -71 z "},"`":{"ha":694,"x_min":237,"x_max":406,"o":"m 273 959 l 275 959 q 365 845 297 959 q 406 774 406 795 l 406 772 q 376 742 401 742 l 370 742 q 308 815 347 742 q 237 924 239 908 q 273 959 241 959 z "},"a":{"ha":841,"x_min":31,"x_max":725,"o":"m 528 694 l 534 694 q 657 652 601 694 q 690 694 657 694 l 692 694 q 725 659 720 694 l 725 35 q 692 0 720 0 l 690 0 q 657 33 657 5 l 657 500 q 595 612 657 583 q 536 626 561 626 l 528 626 q 146 475 291 626 q 99 352 99 410 l 99 342 q 301 111 99 205 q 530 68 411 68 l 534 68 q 568 31 564 68 q 536 0 568 6 l 530 0 q 117 151 281 0 q 31 340 31 243 l 31 354 q 231 626 31 511 q 528 694 373 694 z "},"b":{"ha":911,"x_min":111,"x_max":809,"o":"m 140 1329 l 150 1329 q 179 1295 174 1329 l 179 657 q 301 699 237 699 l 311 699 q 736 532 568 699 q 809 355 809 443 l 809 344 q 606 68 809 182 q 309 0 468 0 l 301 0 q 268 31 268 6 l 268 33 q 303 68 273 68 l 309 68 q 645 174 502 68 q 741 346 741 256 l 741 353 q 517 595 741 500 q 307 630 412 630 q 181 534 203 630 q 179 508 179 521 l 179 33 q 146 0 174 0 l 144 0 q 111 33 111 5 l 111 1295 q 140 1329 116 1329 z "},"c":{"ha":758,"x_min":31,"x_max":725,"o":"m 365 694 l 371 694 q 404 665 404 688 l 404 659 q 338 624 404 624 q 190 556 277 624 q 99 348 99 463 q 457 91 99 159 q 692 68 588 68 q 725 39 725 61 l 725 31 q 696 0 725 7 l 692 0 q 222 91 437 0 q 31 348 31 185 q 200 648 31 531 q 365 694 286 694 z "},"d":{"ha":840,"x_min":31,"x_max":725,"o":"m 684 1316 l 696 1316 q 725 1275 725 1316 l 725 41 q 701 0 725 11 l 686 0 q 657 28 657 8 l 657 454 q 631 583 657 564 q 530 624 590 624 l 528 624 q 146 472 290 624 q 99 347 99 404 q 307 109 99 202 q 528 68 414 68 l 532 68 q 569 35 569 61 q 538 0 562 0 l 524 0 q 136 134 300 0 q 31 345 31 234 q 281 646 31 532 q 528 692 404 692 l 536 692 q 657 650 597 692 l 657 1285 q 684 1316 663 1316 z "},"e":{"ha":816,"x_min":31,"x_max":725,"o":"m 528 694 l 534 694 q 709 589 652 694 q 725 507 725 548 l 725 505 q 427 315 725 345 q 375 313 393 313 q 202 410 262 313 q 188 484 188 450 l 188 490 q 222 521 188 513 q 256 479 252 521 q 323 391 256 415 q 379 381 353 381 q 630 447 537 381 q 657 507 657 471 q 591 614 657 583 q 536 626 558 626 l 528 626 q 157 486 299 626 q 99 350 99 420 l 99 344 q 321 103 99 197 q 530 68 425 68 l 690 68 q 725 33 725 63 l 725 31 q 692 0 725 6 l 530 0 q 97 173 260 0 q 31 342 31 257 l 31 352 q 233 626 31 513 q 528 694 370 694 z "},"f":{"ha":505,"x_min":107,"x_max":494,"o":"m 455 1340 l 461 1340 q 494 1307 494 1335 q 440 1236 494 1289 q 283 1015 336 1109 q 176 705 187 841 l 180 703 l 465 703 q 494 670 487 703 q 465 637 487 637 l 176 637 l 176 42 q 142 0 176 0 l 136 0 q 107 29 107 8 l 107 678 q 388 1279 107 942 q 455 1340 439 1340 z "},"g":{"ha":859,"x_min":31,"x_max":722,"o":"m 525 694 l 533 694 q 654 653 595 694 q 687 694 654 694 l 691 694 q 722 655 722 688 l 722 85 q 568 -529 722 -332 q 376 -621 484 -621 q 52 -394 134 -621 q 31 -286 31 -330 l 31 -269 q 64 -240 31 -248 q 101 -310 101 -240 q 171 -471 123 -425 q 374 -553 247 -553 q 637 -150 576 -553 q 654 81 654 -47 l 654 473 q 613 597 654 579 q 525 626 578 626 q 157 487 297 626 q 99 356 99 422 l 99 342 q 257 135 99 224 q 545 69 384 69 q 566 37 566 53 q 535 3 559 3 l 521 3 q 132 139 296 3 q 31 335 31 237 l 31 362 q 205 612 31 499 q 525 694 351 694 z "},"h":{"ha":846,"x_min":111,"x_max":804,"o":"m 145 1318 q 180 1264 180 1318 l 180 626 q 295 692 233 692 l 303 692 q 792 64 464 692 q 804 33 804 42 q 774 0 797 0 l 765 0 q 710 78 742 0 q 297 624 410 624 q 184 420 214 624 q 180 355 180 388 l 180 47 q 150 0 178 0 l 141 0 q 111 47 113 0 l 111 1264 q 145 1318 111 1318 z "},"i":{"ha":300,"x_min":111,"x_max":186,"o":"m 145 842 l 152 842 q 186 807 186 836 l 186 800 q 152 766 180 766 l 145 766 q 111 800 111 772 l 111 807 q 145 842 117 842 m 143 692 l 152 692 q 182 651 182 687 l 182 43 q 152 0 179 0 l 143 0 q 115 28 115 8 l 115 663 q 143 692 123 692 z "},"j":{"ha":375,"x_min":-481,"x_max":238,"o":"m 199 690 l 204 690 q 238 656 238 684 l 238 16 q 121 -527 238 -300 q -123 -680 23 -680 q -462 -435 -378 -680 q -481 -315 -481 -372 q -451 -286 -473 -286 l -441 -286 q -408 -354 -408 -286 q -338 -522 -388 -465 q -123 -610 -257 -610 q 155 -164 93 -610 q 168 18 168 -72 l 168 654 q 199 690 173 690 z "},"k":{"ha":812,"x_min":111,"x_max":800,"o":"m 141 1314 l 145 1314 q 178 1280 178 1308 l 178 622 l 180 622 q 313 692 221 692 q 458 663 440 692 q 489 557 489 637 l 489 495 q 350 319 489 362 q 336 315 346 319 q 395 191 336 262 q 636 82 490 106 q 781 66 695 72 q 800 39 800 52 l 800 33 q 767 0 795 0 q 440 76 604 0 q 266 348 266 171 q 330 382 266 382 q 422 497 422 407 l 422 553 q 403 618 422 618 q 303 624 378 624 q 178 354 196 624 l 178 31 q 143 0 178 7 q 111 35 117 0 l 111 1278 q 141 1314 116 1314 z "},"l":{"ha":293,"x_min":111,"x_max":178,"o":"m 145 1310 q 178 1279 178 1300 l 178 33 q 149 0 172 0 l 143 0 q 111 35 115 0 l 111 1273 q 145 1310 116 1310 z "},"m":{"ha":1148,"x_min":100,"x_max":1107,"o":"m 134 694 l 136 694 q 168 661 168 688 l 168 626 q 286 694 220 694 l 292 694 q 458 583 361 694 q 599 694 511 694 l 605 694 q 1107 41 771 694 l 1107 28 q 1078 0 1099 0 l 1072 0 q 1023 60 1046 0 q 741 515 894 309 q 605 626 646 626 l 603 626 q 508 521 540 626 q 792 47 652 321 l 794 35 l 794 33 q 766 0 789 0 l 759 0 q 710 60 732 0 q 454 479 594 282 q 292 626 340 626 l 290 626 q 168 356 187 626 l 168 33 q 136 0 163 0 l 134 0 q 100 31 100 5 l 100 659 q 134 694 105 694 z "},"n":{"ha":838,"x_min":100,"x_max":796,"o":"m 136 694 q 168 665 168 688 l 168 626 q 292 694 220 694 l 296 694 q 784 64 454 694 q 796 33 796 41 q 766 0 789 0 l 757 0 q 701 78 733 0 q 430 513 565 334 q 292 626 334 626 l 290 626 q 174 422 204 626 q 168 272 168 370 l 168 31 q 140 0 168 7 l 132 0 q 100 47 102 0 l 100 646 q 129 694 104 694 l 136 694 z "},"o":{"ha":825,"x_min":28,"x_max":722,"o":"m 374 694 l 376 694 q 691 445 585 694 q 722 284 722 362 q 623 68 722 174 q 391 0 542 0 l 360 0 q 64 157 132 0 q 28 288 28 222 q 125 564 28 427 q 374 694 229 694 m 96 288 l 96 286 q 172 119 96 202 q 364 68 233 68 l 387 68 q 627 189 582 68 q 654 286 654 239 l 654 288 q 559 537 654 415 q 374 626 482 626 q 119 408 203 626 q 96 288 96 345 z "},"p":{"ha":907,"x_min":102,"x_max":823,"o":"m 134 694 l 139 694 q 173 660 173 688 l 173 174 q 237 59 173 88 q 303 44 268 44 l 310 44 q 703 200 553 44 q 752 328 752 268 l 752 335 q 502 593 752 499 q 303 623 401 623 l 301 623 q 264 660 264 628 l 264 662 q 297 694 273 694 l 303 694 q 732 538 563 694 q 823 341 823 441 l 823 326 q 619 46 823 165 q 310 -26 471 -26 l 297 -26 q 175 14 235 -26 l 173 14 l 173 -642 q 136 -678 167 -678 q 102 -642 109 -678 l 102 657 q 134 694 108 694 z "},"q":{"ha":896,"x_min":31,"x_max":751,"o":"m 551 696 l 555 696 q 589 664 589 690 l 589 662 q 553 625 585 625 l 551 625 q 176 495 326 625 q 102 334 102 420 l 102 332 q 326 84 102 182 q 540 46 438 46 l 551 46 q 675 123 640 46 q 681 174 681 150 l 681 659 q 713 696 686 696 l 718 696 q 751 662 751 690 l 751 -640 q 715 -677 746 -677 q 681 -640 688 -677 l 681 16 l 679 16 q 557 -24 621 -24 l 540 -24 q 106 146 280 -24 q 31 330 31 239 l 31 334 q 320 659 31 545 q 551 696 437 696 z "},"r":{"ha":833,"x_min":94,"x_max":790,"o":"m 125 694 l 134 694 q 162 665 162 686 l 162 517 q 370 636 258 605 q 757 694 564 694 l 760 694 q 790 659 783 694 q 753 626 790 633 q 309 539 515 626 q 216 473 258 513 q 162 315 162 428 l 162 28 q 134 0 154 0 l 125 0 q 94 45 96 0 l 94 648 q 115 692 94 682 l 125 694 z "},"s":{"ha":690,"x_min":-28,"x_max":665,"o":"m 608 694 l 632 694 q 665 656 662 694 q 624 626 665 630 l 610 626 q 208 527 283 626 q 196 481 196 500 l 196 473 q 369 358 196 427 q 509 185 509 292 q 315 33 509 86 q 0 0 157 0 q -28 28 -28 8 l -28 35 q 7 68 -28 63 q 408 142 267 68 q 441 191 441 165 q 278 323 441 261 q 128 471 128 388 l 128 479 q 608 694 128 694 z "},"t":{"ha":567,"x_min":-25,"x_max":670,"o":"m 321 1320 l 328 1320 q 357 1291 357 1312 l 357 891 q 608 1023 508 932 q 633 1038 608 1031 l 637 1038 q 670 1009 670 1032 l 670 1003 q 515 879 670 963 q 357 821 460 850 l 357 29 q 328 0 349 0 l 321 0 q 288 41 288 0 l 288 806 q 41 782 168 782 l 10 782 q -25 815 -25 789 q 10 850 -18 850 l 41 850 q 288 875 159 850 l 288 1279 q 321 1320 288 1320 z "},"u":{"ha":863,"x_min":53,"x_max":747,"o":"m 83 692 l 87 692 q 121 665 121 685 q 207 216 121 421 q 393 68 281 68 l 412 68 q 675 174 624 68 l 677 189 l 677 648 q 707 692 680 692 l 712 692 q 745 663 745 686 l 745 205 q 747 186 745 198 q 745 172 745 184 l 745 28 q 716 0 736 0 l 707 0 q 677 45 677 0 l 677 70 q 416 0 581 0 l 391 0 q 111 279 203 0 q 53 659 53 475 q 83 692 60 692 z "},"v":{"ha":825,"x_min":85,"x_max":779,"o":"m 741 694 l 750 694 q 779 665 779 686 l 779 659 q 647 408 779 640 q 276 0 406 0 l 270 0 q 93 243 136 0 q 85 370 85 311 l 85 648 q 116 684 90 684 l 120 684 q 153 650 153 680 l 153 372 q 250 72 153 129 q 274 68 264 68 l 276 68 q 587 441 361 68 q 723 688 648 548 q 741 694 738 694 z "},"w":{"ha":1143,"x_min":85,"x_max":1091,"o":"m 118 694 l 120 694 q 153 659 148 694 l 153 354 q 233 80 153 160 q 272 68 253 68 l 276 68 q 532 350 353 75 q 719 684 646 539 q 743 694 732 694 l 745 694 q 779 661 779 688 l 779 656 q 572 288 707 502 l 492 171 q 581 68 528 68 l 589 68 q 846 352 660 68 q 1036 688 929 488 q 1055 694 1050 694 l 1059 694 q 1091 661 1091 690 l 1091 659 q 904 317 1091 633 q 593 0 702 0 l 581 0 q 443 111 495 0 q 280 0 343 0 l 268 0 q 113 155 165 0 q 85 354 85 244 l 85 661 q 118 694 90 694 z "},"x":{"ha":755,"x_min":-28,"x_max":666,"o":"m 629 694 l 637 694 q 666 665 666 686 l 666 650 q 435 280 666 487 q 666 45 666 49 l 666 28 q 633 0 666 5 l 629 0 q 519 99 612 0 l 382 235 q 56 20 200 98 q 7 0 17 0 l 5 0 q -28 37 -24 0 q 42 91 -28 60 q 332 284 158 151 q 131 492 148 471 l 129 507 q 159 537 138 537 l 163 537 q 221 492 184 537 l 386 330 l 388 330 q 536 492 515 446 q 600 673 600 579 q 629 694 614 694 z "},"y":{"ha":880,"x_min":20,"x_max":743,"o":"m 50 693 l 59 693 q 93 635 93 693 q 264 270 103 498 q 551 52 445 52 l 561 52 q 666 229 642 52 q 670 394 670 279 l 670 640 q 700 693 670 693 l 713 693 q 743 659 734 693 l 741 633 l 741 347 q 646 -454 741 -191 q 390 -677 556 -677 l 369 -677 q 44 -446 135 -677 q 20 -315 20 -361 q 57 -281 20 -288 q 93 -341 93 -281 q 149 -499 109 -444 q 373 -606 228 -606 l 386 -606 q 648 -96 599 -606 q 657 20 657 -9 q 566 -18 612 -18 l 551 -18 q 163 289 388 -18 q 20 659 20 517 q 50 693 28 693 z "},"z":{"ha":719,"x_min":0,"x_max":694,"o":"m 189 694 l 665 694 q 694 665 694 686 l 694 659 q 634 610 694 632 q 317 397 462 515 q 187 278 293 387 q 72 76 85 161 l 72 68 l 503 68 q 537 35 537 63 l 537 33 q 505 0 533 0 l 31 0 q 0 35 5 0 q 525 626 0 304 l 197 626 q 157 663 157 626 q 189 694 157 688 z "},"{":{"ha":688,"x_min":5,"x_max":382,"o":"m 334 1116 l 361 1116 q 382 1094 366 1116 l 382 1085 q 317 1045 382 1045 q 229 743 229 988 l 229 654 q 141 470 229 514 l 136 470 q 229 26 229 395 l 229 -4 q 374 -110 229 -88 q 382 -136 382 -124 l 382 -145 q 361 -167 382 -151 l 343 -167 q 163 0 163 -141 q 159 44 159 0 l 159 132 q 84 426 159 359 q 14 448 71 437 q 5 475 5 463 q 84 514 5 514 q 159 619 159 545 q 281 1098 159 1061 q 334 1116 281 1108 z "},"|":{"ha":795,"x_min":307,"x_max":380,"o":"m 307 -208 l 307 985 q 339 1062 307 1042 l 347 1062 q 380 985 372 1062 l 380 -208 q 347 -286 380 -266 l 339 -286 q 307 -208 315 -286 z "},"}":{"ha":688,"x_min":144,"x_max":522,"o":"m 193 -175 l 166 -175 q 144 -153 161 -175 l 144 -144 q 210 -104 144 -104 q 298 198 298 -47 l 298 286 q 386 471 298 427 l 391 471 q 298 914 298 545 l 298 945 q 153 1050 298 1029 q 144 1077 144 1065 l 144 1086 q 166 1107 144 1091 l 184 1107 q 364 941 364 1082 q 368 897 368 941 l 368 809 q 443 515 368 582 q 513 492 456 503 q 522 467 522 478 q 443 427 522 427 q 368 321 368 396 q 245 -157 368 -121 q 193 -175 245 -168 z "},"~":{"ha":688,"x_min":119,"x_max":559,"o":"m 513 600 l 519 600 q 559 557 553 600 q 469 446 559 505 q 406 430 438 430 l 399 430 q 279 487 350 430 l 259 490 l 256 490 q 189 430 231 490 q 165 420 176 420 l 159 420 q 119 463 125 420 q 262 577 169 577 q 386 517 310 577 l 403 513 q 486 590 451 513 q 513 600 503 600 z "},"¡":{"ha":456,"x_min":184,"x_max":275,"o":"m 225 594 l 234 594 q 275 553 275 587 l 275 544 q 234 503 268 503 l 225 503 q 184 544 184 510 l 184 553 q 225 594 191 594 m 223 412 l 232 412 q 262 371 262 407 l 262 -237 q 232 -280 259 -280 l 223 -280 q 195 -252 195 -272 l 195 383 q 223 412 203 412 z "},"¢":{"ha":884,"x_min":0,"x_max":701,"o":"m 519 846 l 522 846 q 549 820 549 841 q 505 730 549 814 l 508 730 q 618 745 572 745 l 627 745 q 658 713 649 745 q 574 673 658 673 q 450 627 450 651 l 211 159 q 661 69 417 69 q 701 37 701 64 l 701 32 q 669 0 696 0 l 667 0 q 179 98 395 0 q 115 6 138 6 q 90 26 96 11 l 90 35 q 133 127 90 43 l 130 127 q 0 343 0 216 l 0 355 q 390 692 0 526 q 448 739 448 706 q 508 843 500 839 q 519 846 513 846 m 69 358 l 69 349 q 165 188 69 250 q 384 615 372 588 q 115 444 237 561 q 69 358 72 396 z "},"£":{"ha":688,"x_min":0,"x_max":507,"o":"m 346 802 l 356 802 q 385 768 380 802 q 311 736 385 736 q 140 536 140 686 l 140 515 q 148 454 140 492 l 409 454 q 438 425 438 448 l 438 420 q 409 391 434 391 l 180 391 l 180 388 q 211 340 208 340 l 412 340 q 438 311 433 340 l 438 306 q 404 277 438 281 l 243 277 q 261 187 261 231 l 261 177 q 227 66 261 114 l 227 63 l 473 63 q 507 35 507 58 l 507 29 q 477 0 503 0 l 111 0 q 77 21 86 0 l 77 37 q 140 74 77 62 q 198 177 198 107 l 198 180 q 174 277 198 227 l 35 277 q 0 306 0 281 l 0 309 q 26 340 3 340 l 132 340 l 132 343 q 103 391 108 390 l 29 391 q 0 420 0 395 l 0 425 q 29 454 5 454 l 82 454 l 74 525 q 232 776 74 694 q 346 802 286 802 z "},"¤":{"ha":688,"x_min":110,"x_max":606,"o":"m 136 765 l 138 765 q 186 727 154 765 l 223 692 q 358 745 288 745 q 493 692 429 745 l 494 692 q 570 764 562 764 q 578 765 572 765 l 580 765 q 606 739 606 762 l 606 736 q 571 692 606 720 l 530 648 q 587 475 587 559 q 548 365 587 428 q 606 300 606 312 l 606 295 q 580 269 603 269 l 578 269 q 533 304 562 269 l 510 326 q 358 288 457 288 q 205 326 262 288 q 142 269 153 269 l 136 269 q 110 295 110 272 l 110 297 q 150 347 110 313 q 168 365 150 349 q 130 475 130 428 q 186 650 130 557 q 110 732 110 722 l 110 739 q 136 765 113 765 m 188 487 l 188 484 q 248 370 188 420 q 353 347 286 347 l 363 347 q 516 432 485 347 q 528 484 528 460 l 528 487 q 471 633 528 561 q 358 687 422 687 q 195 535 242 687 q 188 487 188 508 z "},"¥":{"ha":856,"x_min":136,"x_max":780,"o":"m 746 871 l 751 871 q 780 843 780 866 l 780 838 q 632 587 780 823 l 462 343 l 547 343 q 584 321 574 343 l 584 307 q 550 278 584 281 l 431 278 q 414 221 422 255 l 538 221 q 584 190 584 221 l 584 184 q 555 156 578 156 l 406 156 q 394 43 396 156 l 394 31 q 363 0 389 0 l 357 0 q 329 34 332 0 l 329 37 q 337 156 329 115 l 241 156 q 210 190 213 156 q 249 221 210 216 l 349 221 q 363 278 349 239 l 241 278 q 210 315 214 278 q 243 343 222 343 l 385 343 q 406 380 406 368 q 136 639 168 598 l 136 650 q 164 678 141 678 l 178 678 q 442 434 232 633 l 445 434 q 726 866 591 633 l 746 871 z "},"¦":{"ha":688,"x_min":307,"x_max":380,"o":"m 307 558 l 307 1031 q 339 1062 307 1055 l 347 1062 q 380 1031 372 1062 l 380 558 q 347 528 380 535 l 339 528 q 307 558 315 528 m 307 -260 l 307 214 q 339 244 307 237 l 347 244 q 380 214 372 244 l 380 -260 q 347 -290 380 -283 l 339 -290 q 307 -260 315 -290 z "},"§":{"ha":913,"x_min":92,"x_max":766,"o":"m 743 842 q 766 811 766 834 l 766 808 q 663 766 766 766 q 393 625 393 714 l 393 613 q 575 526 393 571 q 686 396 686 479 l 686 377 q 438 217 686 288 l 381 206 l 381 202 q 537 54 537 161 q 115 -149 537 -90 q 92 -118 92 -140 l 92 -114 q 172 -72 92 -77 q 469 61 469 -16 q 263 168 469 117 q 172 286 172 208 q 461 488 172 430 l 461 492 q 323 606 323 528 l 323 636 q 640 830 323 767 q 743 842 717 842 m 240 282 q 255 252 247 252 q 617 393 617 313 l 617 400 q 590 438 617 421 q 240 282 240 396 z "},"¨":{"ha":694,"x_min":142,"x_max":536,"o":"m 151 874 l 199 923 q 216 931 208 931 q 235 922 224 931 l 281 872 q 288 855 288 863 q 280 837 288 846 l 233 786 q 216 774 222 774 q 199 783 207 774 l 148 841 q 142 857 142 849 q 151 874 142 865 m 399 874 l 447 923 q 464 931 456 931 q 482 922 471 931 l 529 872 q 536 855 536 863 q 528 838 536 846 l 481 786 q 464 774 469 774 q 447 783 454 774 l 395 842 q 389 857 389 849 q 399 874 389 865 z "},"©":{"ha":1161,"x_min":57,"x_max":1034,"o":"m 539 977 l 552 977 q 972 671 815 977 q 1034 411 1034 527 l 1034 394 q 937 140 1034 278 q 562 0 831 0 l 530 0 q 196 98 301 0 q 96 240 116 177 q 57 394 57 321 l 57 411 q 179 774 57 587 q 539 977 330 977 m 115 415 l 115 402 q 114 400 115 400 l 115 397 l 115 388 q 199 175 115 297 q 523 58 292 58 l 568 58 q 899 186 811 58 q 976 388 976 301 l 976 415 q 867 737 976 559 q 559 919 731 919 l 532 919 q 222 735 359 919 q 115 415 115 557 m 541 769 q 567 737 563 769 q 507 709 567 709 q 391 656 446 701 q 309 473 309 580 q 629 253 309 309 q 824 235 686 242 q 841 204 841 224 q 811 178 841 184 q 430 248 618 178 q 250 477 250 328 q 400 733 250 636 q 541 769 469 769 z "},"«":{"ha":640,"x_min":85,"x_max":514,"o":"m 297 312 l 297 328 q 411 418 297 350 q 481 458 460 458 l 484 458 q 514 429 514 454 l 514 423 q 446 363 514 401 l 387 320 l 509 233 q 514 217 514 224 l 514 212 q 484 182 509 182 l 481 182 q 373 247 463 182 q 297 312 297 292 m 85 312 l 85 328 q 199 418 85 350 q 270 458 249 458 l 273 458 q 302 429 302 454 l 302 423 q 235 363 302 401 l 175 320 l 297 233 q 302 217 302 224 l 302 212 q 273 182 298 182 l 270 182 q 161 247 251 182 q 85 312 85 292 z "},"®":{"ha":1135,"x_min":0,"x_max":973,"o":"m 480 973 l 493 973 q 886 715 733 973 q 973 408 973 555 l 973 393 q 867 130 973 269 q 503 0 762 0 l 471 0 q 65 189 163 0 q 0 393 0 300 l 0 408 q 144 803 0 604 q 480 973 290 973 m 58 412 l 58 390 q 138 181 58 300 q 475 58 227 58 l 502 58 q 856 206 774 58 q 919 390 919 311 l 919 406 q 791 762 919 579 q 496 919 663 919 l 481 919 q 130 675 269 919 q 58 412 58 524 m 275 713 l 566 713 q 814 642 746 713 q 825 606 825 626 q 743 525 825 553 q 456 420 649 482 l 456 417 q 692 258 679 273 l 692 247 q 669 226 692 231 q 452 369 661 226 q 382 427 382 408 l 382 428 q 454 465 382 448 q 766 586 701 548 q 781 608 777 586 l 781 612 q 682 658 762 639 q 566 669 634 669 l 295 669 l 295 163 q 275 139 292 139 l 271 139 q 250 159 250 142 l 250 693 q 275 713 250 710 z "},"¯":{"ha":706,"x_min":-4,"x_max":685,"o":"m 35 1036 l 646 1036 q 685 1006 675 1036 l 685 998 q 646 968 685 975 l 35 968 q -4 998 6 968 l -4 1006 q 35 1036 -4 1028 z "},"°":{"ha":457,"x_min":73,"x_max":365,"o":"m 205 968 l 232 968 q 365 795 365 933 l 365 787 q 250 676 365 699 l 205 676 q 73 774 100 676 l 73 795 q 205 968 73 933 m 129 798 q 194 735 144 735 q 223 732 206 732 q 308 782 290 732 q 311 801 308 785 q 233 904 291 904 q 220 907 227 907 q 129 798 129 888 z "},"±":{"ha":736,"x_min":29,"x_max":711,"o":"m 165 95 l 569 95 q 595 56 588 95 l 595 45 q 569 6 595 16 l 165 6 q 140 45 146 6 l 140 56 q 165 95 140 85 m 326 449 l 68 449 q 29 488 39 449 l 29 498 q 68 537 29 528 l 326 537 l 326 795 q 365 834 326 825 l 376 834 q 414 795 405 834 l 414 537 l 672 537 q 711 498 702 537 l 711 488 q 672 449 711 458 l 414 449 l 414 191 q 376 152 414 161 l 365 152 q 326 191 336 152 l 326 449 z "},"´":{"ha":694,"x_min":218,"x_max":527,"o":"m 380 804 l 334 763 q 296 731 310 739 q 269 723 282 723 q 252 725 260 723 l 248 723 l 244 728 q 233 736 237 731 q 220 760 222 746 l 218 761 l 219 762 q 218 771 218 766 q 229 800 218 786 q 260 827 239 813 l 365 891 l 412 932 q 449 964 435 956 q 477 972 463 972 q 494 970 486 972 l 497 972 l 501 967 q 513 959 508 964 q 526 936 523 949 l 527 935 l 526 934 q 527 924 527 929 q 516 896 527 909 q 485 869 506 882 l 380 804 z "},"µ":{"ha":855,"x_min":0,"x_max":812,"o":"m 771 749 l 791 749 q 812 728 797 749 q 655 254 812 646 q 309 -63 502 -63 l 248 -63 q 62 60 157 -63 l 62 -340 q 41 -360 62 -345 l 20 -360 q 0 -340 15 -360 l 0 530 q 33 563 0 563 q 62 530 59 563 l 62 291 q 222 3 62 92 l 264 -1 l 280 -1 q 602 299 480 -1 q 730 654 659 406 q 771 749 752 749 z "},"¶":{"ha":694,"x_min":63,"x_max":630,"o":"m 630 973 l 630 926 l 544 926 l 544 0 l 488 0 l 488 926 l 376 926 l 376 0 l 319 0 l 319 500 q 117 568 171 502 q 63 736 63 634 q 136 908 63 843 q 330 973 209 973 l 630 973 z "},"·":{"ha":345,"x_min":115,"x_max":253,"o":"m 176 545 l 193 545 q 253 476 240 545 q 189 412 240 412 l 172 412 q 115 485 115 422 q 176 545 133 545 z "},"∙":{"ha":345,"x_min":115,"x_max":253,"o":"m 176 545 l 193 545 q 253 476 240 545 q 189 412 240 412 l 172 412 q 115 485 115 422 q 176 545 133 545 z "},"»":{"ha":640,"x_min":85,"x_max":514,"o":"m 302 328 l 302 312 q 189 222 302 290 q 118 182 139 182 l 115 182 q 85 212 85 186 l 85 217 q 153 277 85 239 l 213 320 l 91 407 q 85 423 85 416 l 85 429 q 115 458 90 458 l 118 458 q 227 393 137 458 q 302 328 302 349 m 514 328 l 514 312 q 400 222 514 290 q 330 182 351 182 l 327 182 q 297 212 297 186 l 297 217 q 365 277 297 239 l 425 320 l 302 407 q 297 423 297 416 l 297 429 q 327 458 302 458 l 330 458 q 438 393 349 458 q 514 328 514 349 z "},"¿":{"ha":507,"x_min":0,"x_max":451,"o":"m 214 -316 q 5 -100 37 -316 q 0 -35 0 -76 l 0 0 q 128 250 0 68 q 195 505 195 374 l 214 516 l 237 516 q 256 500 245 516 l 256 458 q 85 65 256 308 q 66 0 66 30 l 66 -39 q 171 -258 66 -216 l 204 -262 l 242 -262 q 380 -112 342 -262 q 385 -50 385 -73 l 385 7 q 233 69 385 69 l 209 69 l 195 85 l 195 104 q 223 123 195 111 q 451 3 451 123 l 451 -43 q 256 -316 451 -279 l 214 -316 m 228 595 l 216 595 q 174 644 182 595 q 219 689 182 689 l 231 689 q 270 637 270 682 q 228 595 258 595 z "},"À":{"ha":1078,"x_min":28,"x_max":999,"o":"m 509 974 l 521 974 q 951 345 806 974 q 999 33 999 115 q 966 0 994 0 l 958 0 q 919 100 919 0 q 825 531 878 370 q 512 900 696 900 q 113 526 230 900 l 509 526 q 550 493 550 521 l 550 481 q 509 448 550 453 l 69 448 q 28 484 28 452 q 176 812 66 677 q 509 974 314 974 m 447 1251 l 450 1251 q 539 1137 471 1251 q 580 1066 580 1087 l 580 1063 q 550 1034 575 1034 l 545 1034 q 482 1107 522 1034 q 412 1215 413 1200 q 447 1251 416 1251 z "},"Á":{"ha":1078,"x_min":28,"x_max":999,"o":"m 509 974 l 521 974 q 951 345 806 974 q 999 33 999 115 q 966 0 994 0 l 958 0 q 919 100 919 0 q 825 531 878 370 q 512 900 696 900 q 113 526 230 900 l 509 526 q 550 493 550 521 l 550 481 q 509 448 550 453 l 69 448 q 28 484 28 452 q 176 812 66 677 q 509 974 314 974 m 547 1254 l 549 1254 q 585 1219 585 1251 q 468 1042 585 1204 q 452 1037 459 1037 l 446 1037 q 416 1067 416 1042 l 416 1069 q 481 1178 416 1088 q 547 1254 526 1254 z "},"Â":{"ha":1078,"x_min":28,"x_max":999,"o":"m 509 974 l 521 974 q 951 345 806 974 q 999 33 999 115 q 966 0 994 0 l 958 0 q 919 100 919 0 q 825 531 878 370 q 512 900 696 900 q 113 526 230 900 l 509 526 q 550 493 550 521 l 550 481 q 509 448 550 453 l 69 448 q 28 484 28 452 q 176 812 66 677 q 509 974 314 974 m 496 1234 l 512 1234 q 602 1120 534 1234 q 642 1049 642 1070 l 642 1046 q 612 1017 637 1017 l 607 1017 q 547 1084 585 1017 l 504 1144 l 417 1022 q 401 1017 408 1017 l 395 1017 q 366 1046 366 1021 l 366 1049 q 431 1158 366 1068 q 496 1234 475 1234 z "},"Ã":{"ha":1078,"x_min":28,"x_max":999,"o":"m 509 974 l 521 974 q 951 345 806 974 q 999 33 999 115 q 966 0 994 0 l 958 0 q 919 100 919 0 q 825 531 878 370 q 512 900 696 900 q 113 526 230 900 l 509 526 q 550 493 550 521 l 550 481 q 509 448 550 453 l 69 448 q 28 484 28 452 q 176 812 66 677 q 509 974 314 974 m 635 1205 l 640 1205 q 673 1170 667 1205 q 600 1080 673 1128 q 548 1067 574 1067 l 543 1067 q 445 1113 503 1067 l 429 1116 l 426 1116 q 372 1067 406 1116 q 353 1059 361 1059 l 347 1059 q 315 1094 320 1059 q 431 1186 355 1186 q 532 1137 470 1186 l 545 1135 q 613 1197 585 1135 q 635 1205 627 1205 z "},"Ä":{"ha":1078,"x_min":28,"x_max":999,"o":"m 509 974 l 521 974 q 951 345 806 974 q 999 33 999 115 q 966 0 994 0 l 958 0 q 919 100 919 0 q 825 531 878 370 q 512 900 696 900 q 113 526 230 900 l 509 526 q 550 493 550 521 l 550 481 q 509 448 550 453 l 69 448 q 28 484 28 452 q 176 812 66 677 q 509 974 314 974 m 414 1115 l 420 1115 q 455 1080 455 1109 l 455 1074 q 420 1039 449 1039 l 414 1039 q 379 1074 379 1045 l 379 1080 q 414 1115 385 1115 m 591 1111 l 598 1111 q 633 1076 633 1105 l 633 1069 q 598 1035 627 1035 l 591 1035 q 557 1069 557 1041 l 557 1076 q 591 1111 563 1111 z "},"Å":{"ha":1078,"x_min":28,"x_max":999,"o":"m 399 1075 q 473 985 399 1010 q 492 983 481 985 q 587 1067 562 983 l 587 1080 q 511 1170 587 1142 l 489 1170 q 399 1094 424 1170 l 399 1075 m 603 960 q 951 345 828 880 q 999 33 999 115 q 966 0 994 0 l 958 0 q 919 100 919 0 q 825 531 878 370 q 512 900 696 900 q 113 526 230 900 l 509 526 q 550 493 550 521 l 550 481 q 509 448 550 453 l 69 448 q 28 484 28 452 q 176 812 66 677 q 385 956 268 920 q 334 1042 353 987 q 332 1067 332 1057 l 332 1083 q 446 1232 332 1185 q 484 1238 466 1238 l 503 1238 q 649 1118 604 1238 q 654 1078 654 1088 q 603 960 654 1004 z "},"Æ":{"ha":1851,"x_min":28,"x_max":1828,"o":"m 975 228 q 999 33 999 92 q 966 0 994 0 l 958 0 q 919 100 919 0 q 825 531 878 370 q 512 900 696 900 q 113 526 230 900 l 509 526 q 550 493 550 521 l 550 481 q 509 448 550 453 l 69 448 q 28 484 28 452 q 176 812 66 677 q 509 974 314 974 l 521 974 q 873 614 737 974 q 1062 886 912 767 q 1321 972 1186 972 l 1330 972 q 1368 937 1368 967 q 1300 895 1368 895 q 1027 754 1164 895 q 935 524 935 623 l 1326 524 q 1368 489 1368 519 l 1368 483 q 1326 448 1368 452 l 935 448 q 1036 274 935 371 q 1194 180 1106 216 q 1471 103 1315 132 q 1810 71 1615 83 q 1828 41 1828 53 l 1828 33 q 1795 0 1828 8 l 1786 0 q 1071 156 1379 0 q 975 228 1015 190 z "},"Ç":{"ha":1050,"x_min":29,"x_max":1001,"o":"m 368 100 q 300 127 334 113 q 29 486 29 259 q 279 916 29 755 q 494 972 391 972 l 506 972 q 542 934 536 972 q 468 895 542 895 q 220 777 354 895 q 106 492 106 647 l 106 483 q 707 94 106 186 q 983 71 802 83 q 1001 35 1001 54 q 963 0 1001 5 l 960 0 q 450 73 688 0 q 574 -34 484 33 q 639 -202 639 -94 l 639 -221 q 519 -452 639 -373 q 425 -476 475 -476 l 408 -476 q 167 -332 237 -476 q 156 -270 156 -288 l 156 -243 q 191 -164 156 -164 l 199 -164 q 229 -194 222 -164 q 224 -251 224 -237 l 224 -262 q 359 -403 224 -368 q 422 -408 389 -408 q 571 -235 546 -408 l 571 -202 q 473 -42 571 -95 q 368 100 374 28 z "},"È":{"ha":1042,"x_min":50,"x_max":1019,"o":"m 512 972 l 521 972 q 559 937 559 967 q 491 895 559 895 q 218 754 355 895 q 126 524 126 623 l 517 524 q 559 489 559 519 l 559 483 q 517 448 559 452 l 126 448 q 227 274 126 371 q 385 180 297 216 q 662 103 506 132 q 1001 71 806 83 q 1019 41 1019 53 l 1019 33 q 986 0 1019 8 l 977 0 q 262 156 570 0 q 50 471 50 287 l 50 500 q 253 886 50 725 q 512 972 377 972 m 298 1231 l 309 1231 q 627 1068 363 1208 q 635 1041 635 1050 q 597 1008 635 1016 q 274 1179 288 1163 q 269 1198 274 1185 q 298 1231 276 1231 z "},"É":{"ha":1042,"x_min":50,"x_max":1019,"o":"m 512 972 l 521 972 q 559 937 559 967 q 491 895 559 895 q 218 754 355 895 q 126 524 126 623 l 517 524 q 559 489 559 519 l 559 483 q 517 448 559 452 l 126 448 q 227 274 126 371 q 385 180 297 216 q 662 103 506 132 q 1001 71 806 83 q 1019 41 1019 53 l 1019 33 q 986 0 1019 8 l 977 0 q 262 156 570 0 q 50 471 50 287 l 50 500 q 253 886 50 725 q 512 972 377 972 m 599 1192 l 610 1192 q 637 1171 626 1192 l 637 1154 q 542 1089 637 1130 q 309 970 355 988 q 273 1008 278 970 q 338 1059 273 1033 q 599 1192 587 1192 z "},"Ê":{"ha":1042,"x_min":50,"x_max":1019,"o":"m 512 972 l 521 972 q 559 937 559 967 q 491 895 559 895 q 218 754 355 895 q 126 524 126 623 l 517 524 q 559 489 559 519 l 559 483 q 517 448 559 452 l 126 448 q 227 274 126 371 q 385 180 297 216 q 662 103 506 132 q 1001 71 806 83 q 1019 41 1019 53 l 1019 33 q 986 0 1019 8 l 977 0 q 262 156 570 0 q 50 471 50 287 l 50 500 q 253 886 50 725 q 512 972 377 972 m 493 1259 l 509 1259 q 599 1145 531 1259 q 640 1075 640 1096 l 640 1072 q 610 1042 635 1042 l 604 1042 q 545 1110 582 1042 l 501 1170 l 414 1048 q 398 1042 406 1042 l 393 1042 q 363 1072 363 1047 l 363 1075 q 428 1183 363 1094 q 493 1259 473 1259 z "},"Ë":{"ha":1042,"x_min":50,"x_max":1019,"o":"m 512 972 l 521 972 q 559 937 559 967 q 491 895 559 895 q 218 754 355 895 q 126 524 126 623 l 517 524 q 559 489 559 519 l 559 483 q 517 448 559 452 l 126 448 q 227 274 126 371 q 385 180 297 216 q 662 103 506 132 q 1001 71 806 83 q 1019 41 1019 53 l 1019 33 q 986 0 1019 8 l 977 0 q 262 156 570 0 q 50 471 50 287 l 50 500 q 253 886 50 725 q 512 972 377 972 m 385 1126 l 388 1126 q 429 1090 429 1119 l 429 1077 q 393 1042 420 1042 l 380 1042 q 345 1077 345 1050 l 345 1085 q 385 1126 349 1126 m 553 1126 l 564 1126 q 602 1082 594 1126 q 562 1042 594 1042 l 551 1042 q 515 1088 515 1048 q 553 1126 526 1126 z "},"Ì":{"ha":325,"x_min":69,"x_max":237,"o":"m 141 972 l 147 972 q 182 922 182 972 l 182 50 q 147 0 182 0 l 144 0 q 106 35 106 5 l 106 937 q 141 972 113 972 m 104 1241 l 107 1241 q 197 1127 129 1241 q 237 1057 237 1078 l 237 1054 q 208 1024 233 1024 l 202 1024 q 140 1097 179 1024 q 69 1206 71 1190 q 104 1241 73 1241 z "},"Í":{"ha":366,"x_min":82,"x_max":250,"o":"m 167 972 l 173 972 q 208 922 208 972 l 208 50 q 173 0 208 0 l 170 0 q 132 35 132 5 l 132 937 q 167 972 138 972 m 212 1221 l 215 1221 q 250 1185 250 1217 q 134 1009 250 1171 q 117 1004 125 1004 l 112 1004 q 82 1034 82 1008 l 82 1036 q 147 1145 82 1055 q 212 1221 192 1221 z "},"Î":{"ha":401,"x_min":37,"x_max":313,"o":"m 172 972 l 178 972 q 214 922 214 972 l 214 50 q 178 0 214 0 l 175 0 q 137 35 137 5 l 137 937 q 172 972 144 972 m 167 1227 l 183 1227 q 273 1114 205 1227 q 313 1043 313 1064 l 313 1040 q 283 1010 309 1010 l 278 1010 q 218 1078 256 1010 l 175 1138 l 88 1016 q 72 1010 79 1010 l 66 1010 q 37 1040 37 1015 l 37 1043 q 102 1152 37 1062 q 167 1227 146 1227 z "},"Ï":{"ha":382,"x_min":37,"x_max":294,"o":"m 168 972 l 174 972 q 209 922 209 972 l 209 50 q 174 0 209 0 l 170 0 q 132 35 132 5 l 132 937 q 168 972 139 972 m 77 1117 l 80 1117 q 121 1082 121 1110 l 121 1068 q 85 1033 112 1033 l 72 1033 q 37 1068 37 1042 l 37 1076 q 77 1117 41 1117 m 245 1117 l 256 1117 q 294 1074 286 1117 q 254 1033 286 1033 l 243 1033 q 208 1079 208 1040 q 245 1117 218 1117 z "},"Ð":{"ha":1324,"x_min":-53,"x_max":1238,"o":"m 297 969 l 840 969 q 1200 787 1047 969 q 1238 668 1238 720 l 1238 637 q 892 206 1238 366 q 465 45 738 126 q 294 0 323 0 q 262 35 270 0 l 262 448 l -18 448 q -53 483 -53 452 l -53 486 q -18 522 -48 522 l 262 522 l 262 934 q 297 969 269 969 m 339 896 l 339 522 l 605 522 q 640 483 633 522 q 605 448 631 448 l 339 448 l 339 87 l 342 87 q 923 308 718 193 q 1164 644 1164 440 l 1164 651 q 923 882 1164 802 q 804 896 875 896 l 339 896 z "},"Ñ":{"ha":1198,"x_min":106,"x_max":1075,"o":"m 1034 972 l 1042 972 q 1075 939 1075 965 l 1075 256 q 1034 224 1075 227 q 180 625 649 224 l 180 33 q 147 0 180 8 l 138 0 q 106 33 114 0 l 106 715 q 141 748 106 740 l 144 748 q 241 669 163 748 q 559 445 427 518 q 1001 300 830 300 l 1001 934 q 1034 972 1006 972 m 679 1121 l 684 1121 q 717 1086 711 1121 q 644 996 717 1044 q 592 983 618 983 l 587 983 q 489 1029 547 983 l 473 1031 l 470 1031 q 416 983 450 1031 q 397 975 406 975 l 391 975 q 359 1010 364 975 q 475 1102 399 1102 q 576 1053 514 1102 l 589 1050 q 657 1113 629 1050 q 679 1121 671 1121 z "},"Ò":{"ha":1107,"x_min":29,"x_max":1001,"o":"m 506 972 l 524 972 q 954 630 801 972 q 1001 401 1001 504 q 857 92 1001 238 q 536 0 749 0 l 494 0 q 88 200 185 0 q 29 404 29 304 q 197 827 29 623 q 506 972 335 972 m 106 418 l 106 389 q 215 156 106 275 q 515 74 302 74 q 883 250 814 74 q 924 389 924 327 l 924 410 q 783 772 924 589 q 515 898 663 898 q 141 589 270 898 q 106 418 106 484 m 474 1242 l 477 1242 q 566 1128 498 1242 q 607 1058 607 1079 l 607 1055 q 577 1025 602 1025 l 572 1025 q 509 1099 549 1025 q 439 1207 440 1192 q 474 1242 443 1242 z "},"Ó":{"ha":1107,"x_min":29,"x_max":1001,"o":"m 506 972 l 524 972 q 954 630 801 972 q 1001 401 1001 504 q 857 92 1001 238 q 536 0 749 0 l 494 0 q 88 200 185 0 q 29 404 29 304 q 197 827 29 623 q 506 972 335 972 m 106 418 l 106 389 q 215 156 106 275 q 515 74 302 74 q 883 250 814 74 q 924 389 924 327 l 924 410 q 783 772 924 589 q 515 898 663 898 q 141 589 270 898 q 106 418 106 484 m 547 1242 l 550 1242 q 585 1206 585 1238 q 469 1030 585 1192 q 452 1025 460 1025 l 447 1025 q 417 1055 417 1029 l 417 1057 q 482 1166 417 1076 q 547 1242 527 1242 z "},"Ô":{"ha":1107,"x_min":29,"x_max":1001,"o":"m 506 972 l 524 972 q 954 630 801 972 q 1001 401 1001 504 q 857 92 1001 238 q 536 0 749 0 l 494 0 q 88 200 185 0 q 29 404 29 304 q 197 827 29 623 q 506 972 335 972 m 106 418 l 106 389 q 215 156 106 275 q 515 74 302 74 q 883 250 814 74 q 924 389 924 327 l 924 410 q 783 772 924 589 q 515 898 663 898 q 141 589 270 898 q 106 418 106 484 m 509 1242 l 526 1242 q 615 1128 547 1242 q 656 1057 656 1078 l 656 1055 q 626 1025 651 1025 l 621 1025 q 561 1093 598 1025 l 517 1152 l 431 1030 q 414 1025 422 1025 l 409 1025 q 379 1055 379 1029 l 379 1057 q 444 1166 379 1076 q 509 1242 489 1242 z "},"Õ":{"ha":1107,"x_min":29,"x_max":1001,"o":"m 506 972 l 524 972 q 954 630 801 972 q 1001 401 1001 504 q 857 92 1001 238 q 536 0 749 0 l 494 0 q 88 200 185 0 q 29 404 29 304 q 197 827 29 623 q 506 972 335 972 m 106 418 l 106 389 q 215 156 106 275 q 515 74 302 74 q 883 250 814 74 q 924 389 924 327 l 924 410 q 783 772 924 589 q 515 898 663 898 q 141 589 270 898 q 106 418 106 484 m 645 1188 l 650 1188 q 683 1153 677 1188 q 610 1063 683 1111 q 558 1050 585 1050 l 553 1050 q 455 1096 513 1050 l 439 1099 l 436 1099 q 382 1050 416 1099 q 363 1042 372 1042 l 357 1042 q 325 1077 330 1042 q 441 1169 366 1169 q 542 1120 480 1169 l 555 1118 q 623 1180 595 1118 q 645 1188 637 1188 z "},"Ö":{"ha":1107,"x_min":29,"x_max":1001,"o":"m 506 972 l 524 972 q 954 630 801 972 q 1001 401 1001 504 q 857 92 1001 238 q 536 0 749 0 l 494 0 q 88 200 185 0 q 29 404 29 304 q 197 827 29 623 q 506 972 335 972 m 106 418 l 106 389 q 215 156 106 275 q 515 74 302 74 q 883 250 814 74 q 924 389 924 327 l 924 410 q 783 772 924 589 q 515 898 663 898 q 141 589 270 898 q 106 418 106 484 m 433 1131 l 435 1131 q 476 1095 476 1124 l 476 1082 q 441 1046 467 1046 l 427 1046 q 392 1082 392 1055 l 392 1090 q 433 1131 397 1131 m 601 1131 l 612 1131 q 650 1087 642 1131 q 609 1046 642 1046 l 598 1046 q 563 1093 563 1053 q 601 1131 574 1131 z "},"×":{"ha":688,"x_min":115,"x_max":626,"o":"m 307 493 l 125 675 q 115 699 115 686 q 125 730 115 713 l 133 738 q 157 749 143 749 q 188 738 171 749 l 370 556 l 553 738 q 576 749 563 749 q 608 738 591 749 l 615 730 q 626 707 626 720 q 615 675 626 693 l 433 493 l 615 311 q 626 287 626 300 q 615 256 626 273 l 608 248 q 584 238 597 238 q 553 248 570 238 l 370 430 l 188 248 q 164 238 178 238 q 133 248 151 238 l 125 256 q 115 279 115 266 q 125 311 115 294 l 307 493 z "},"Ø":{"ha":1139,"x_min":32,"x_max":1033,"o":"m 530 972 l 553 972 q 833 860 706 972 l 836 860 q 951 966 941 966 l 962 966 q 998 928 992 966 q 918 836 998 907 l 886 801 q 1033 410 1033 611 l 1033 389 q 895 94 1033 245 q 568 0 781 0 l 524 0 q 185 106 293 0 q 73 6 94 6 l 64 6 q 32 38 40 6 l 32 47 q 138 162 32 64 q 56 397 56 295 q 247 851 56 638 q 530 972 384 972 m 132 397 q 194 218 132 315 q 780 804 406 434 q 545 898 677 898 q 170 589 297 898 q 132 397 132 490 m 241 159 q 547 74 326 74 q 918 256 851 74 q 960 401 960 333 q 836 748 960 566 l 833 748 q 241 159 623 545 z "},"Ù":{"ha":1063,"x_min":81,"x_max":1053,"o":"m 1012 972 l 1015 972 q 1053 937 1053 967 q 895 445 986 670 q 729 156 827 287 q 414 0 603 0 l 382 0 q 132 200 243 0 q 81 441 81 302 l 81 698 q 123 748 81 748 q 158 707 154 748 l 158 406 q 314 97 158 219 q 399 74 362 74 q 697 244 592 74 q 873 598 768 328 q 983 954 932 772 q 1012 972 996 972 m 475 1217 l 477 1217 q 567 1103 499 1217 q 608 1032 608 1053 l 608 1029 q 578 1000 603 1000 l 572 1000 q 510 1073 549 1000 q 439 1181 441 1166 q 475 1217 444 1217 z "},"Ú":{"ha":1063,"x_min":81,"x_max":1053,"o":"m 1012 972 l 1015 972 q 1053 937 1053 967 q 895 445 986 670 q 729 156 827 287 q 414 0 603 0 l 382 0 q 132 200 243 0 q 81 441 81 302 l 81 698 q 123 748 81 748 q 158 707 154 748 l 158 406 q 314 97 158 219 q 399 74 362 74 q 697 244 592 74 q 873 598 768 328 q 983 954 932 772 q 1012 972 996 972 m 604 1204 l 606 1204 q 642 1168 642 1200 q 525 992 642 1154 q 509 987 516 987 l 503 987 q 473 1017 473 991 l 473 1019 q 538 1128 473 1038 q 604 1204 583 1204 z "},"Û":{"ha":1063,"x_min":81,"x_max":1053,"o":"m 1012 972 l 1015 972 q 1053 937 1053 967 q 895 445 986 670 q 729 156 827 287 q 414 0 603 0 l 382 0 q 132 200 243 0 q 81 441 81 302 l 81 698 q 123 748 81 748 q 158 707 154 748 l 158 406 q 314 97 158 219 q 399 74 362 74 q 697 244 592 74 q 873 598 768 328 q 983 954 932 772 q 1012 972 996 972 m 549 1208 l 565 1208 q 654 1095 587 1208 q 695 1024 695 1045 l 695 1021 q 665 991 690 991 l 660 991 q 600 1059 637 991 l 557 1119 l 470 997 q 454 991 461 991 l 448 991 q 418 1021 418 996 l 418 1024 q 484 1133 418 1043 q 549 1208 528 1208 z "},"Ü":{"ha":1063,"x_min":81,"x_max":1053,"o":"m 1012 972 l 1015 972 q 1053 937 1053 967 q 895 445 986 670 q 729 156 827 287 q 414 0 603 0 l 382 0 q 132 200 243 0 q 81 441 81 302 l 81 698 q 123 748 81 748 q 158 707 154 748 l 158 406 q 314 97 158 219 q 399 74 362 74 q 697 244 592 74 q 873 598 768 328 q 983 954 932 772 q 1012 972 996 972 m 460 1075 l 463 1075 q 503 1040 503 1068 l 503 1026 q 468 991 494 991 l 454 991 q 419 1026 419 1000 l 419 1034 q 460 1075 424 1075 m 628 1075 l 639 1075 q 677 1031 669 1075 q 636 991 669 991 l 625 991 q 590 1037 590 998 q 628 1075 601 1075 z "},"Ý":{"ha":885,"x_min":-60,"x_max":912,"o":"m 871 972 l 880 972 q 912 937 904 972 q 747 636 912 907 q -9 0 321 0 l -24 0 q -60 35 -60 8 q 35 79 -60 79 q 311 227 142 92 q 471 392 450 357 q 167 698 167 690 l 164 713 q 205 748 173 748 q 314 651 226 748 l 520 448 q 827 922 699 684 q 871 972 844 972 m 576 1213 l 579 1213 q 614 1177 614 1209 q 498 1001 614 1163 q 481 996 489 996 l 476 996 q 446 1025 446 1000 l 446 1028 q 511 1137 446 1047 q 576 1213 556 1213 z "},"Þ":{"ha":918,"x_min":121,"x_max":828,"o":"m 145 973 l 168 973 q 192 949 180 973 l 192 762 l 435 762 q 812 557 677 762 q 828 479 828 499 q 569 204 828 291 l 192 204 l 192 24 q 168 0 192 12 l 145 0 q 121 24 134 0 l 121 949 q 145 973 121 961 m 192 690 l 192 275 l 490 275 q 749 479 749 305 l 749 494 q 365 690 686 690 l 192 690 z "},"ß":{"ha":796,"x_min":106,"x_max":722,"o":"m 355 973 l 387 973 q 597 810 566 973 l 597 802 q 465 530 597 707 q 706 280 465 500 l 722 226 l 722 202 q 574 0 722 99 l 534 0 q 317 148 442 0 l 317 172 q 340 195 317 182 l 363 195 q 543 70 498 70 q 652 210 612 102 q 433 436 652 239 q 395 530 395 479 l 395 537 q 511 740 395 566 l 519 817 q 371 903 519 887 q 184 771 184 882 l 184 31 q 161 7 184 20 l 130 7 q 106 70 106 13 l 106 740 q 278 966 106 916 l 355 973 z "},"à":{"ha":836,"x_min":26,"x_max":720,"o":"m 523 694 l 529 694 q 652 652 596 694 q 685 694 652 694 l 687 694 q 720 659 715 694 l 720 35 q 687 0 715 0 l 685 0 q 652 33 652 5 l 652 500 q 591 612 652 583 q 531 626 556 626 l 523 626 q 142 475 286 626 q 94 352 94 410 l 94 342 q 296 111 94 205 q 525 68 406 68 l 529 68 q 564 31 559 68 q 531 0 564 6 l 525 0 q 113 151 277 0 q 26 340 26 243 l 26 354 q 226 626 26 511 q 523 694 368 694 m 366 998 l 368 998 q 458 884 390 998 q 498 813 498 834 l 498 810 q 469 781 494 781 l 463 781 q 401 854 440 781 q 330 962 332 947 q 366 998 334 998 z "},"á":{"ha":835,"x_min":25,"x_max":719,"o":"m 522 694 l 528 694 q 651 652 595 694 q 684 694 651 694 l 686 694 q 719 659 714 694 l 719 35 q 686 0 714 0 l 684 0 q 651 33 651 5 l 651 500 q 589 612 651 583 q 530 626 555 626 l 522 626 q 140 475 285 626 q 93 352 93 410 l 93 342 q 295 111 93 205 q 524 68 405 68 l 528 68 q 562 31 558 68 q 530 0 562 6 l 524 0 q 111 151 275 0 q 25 340 25 243 l 25 354 q 224 626 25 511 q 522 694 367 694 m 510 1001 l 513 1001 q 548 966 548 998 q 431 789 548 951 q 415 784 422 784 l 410 784 q 380 814 380 789 l 380 817 q 445 925 380 836 q 510 1001 490 1001 z "},"â":{"ha":836,"x_min":26,"x_max":720,"o":"m 523 694 l 529 694 q 652 652 596 694 q 685 694 652 694 l 687 694 q 720 659 715 694 l 720 35 q 687 0 715 0 l 685 0 q 652 33 652 5 l 652 500 q 591 612 652 583 q 531 626 556 626 l 523 626 q 142 475 286 626 q 94 352 94 410 l 94 342 q 296 111 94 205 q 525 68 406 68 l 529 68 q 564 31 559 68 q 531 0 564 6 l 525 0 q 113 151 277 0 q 26 340 26 243 l 26 354 q 226 626 26 511 q 523 694 368 694 m 448 997 l 464 997 q 553 883 486 997 q 594 812 594 833 l 594 810 q 564 780 589 780 l 559 780 q 499 848 536 780 l 456 907 l 369 785 q 353 780 360 780 l 347 780 q 317 810 317 785 l 317 812 q 382 921 317 831 q 448 997 427 997 z "},"ã":{"ha":843,"x_min":33,"x_max":727,"o":"m 530 694 l 536 694 q 659 652 603 694 q 692 694 659 694 l 694 694 q 727 659 722 694 l 727 35 q 694 0 722 0 l 692 0 q 659 33 659 5 l 659 500 q 597 612 659 583 q 538 626 563 626 l 530 626 q 149 475 293 626 q 101 352 101 410 l 101 342 q 303 111 101 205 q 532 68 413 68 l 536 68 q 570 31 566 68 q 538 0 570 6 l 532 0 q 119 151 283 0 q 33 340 33 243 l 33 354 q 233 626 33 511 q 530 694 375 694 m 594 939 l 600 939 q 632 904 627 939 q 559 814 632 862 q 507 801 534 801 l 502 801 q 404 847 462 801 l 388 850 l 385 850 q 331 801 365 850 q 312 793 321 793 l 307 793 q 274 828 279 793 q 391 920 315 920 q 491 871 429 920 l 505 869 q 572 931 544 869 q 594 939 586 939 z "},"ä":{"ha":836,"x_min":26,"x_max":720,"o":"m 523 694 l 529 694 q 652 652 596 694 q 685 694 652 694 l 687 694 q 720 659 715 694 l 720 35 q 687 0 715 0 l 685 0 q 652 33 652 5 l 652 500 q 591 612 652 583 q 531 626 556 626 l 523 626 q 142 475 286 626 q 94 352 94 410 l 94 342 q 296 111 94 205 q 525 68 406 68 l 529 68 q 564 31 559 68 q 531 0 564 6 l 525 0 q 113 151 277 0 q 26 340 26 243 l 26 354 q 226 626 26 511 q 523 694 368 694 m 350 898 l 353 898 q 393 863 393 891 l 393 849 q 358 814 385 814 l 345 814 q 309 849 309 823 l 309 857 q 350 898 314 898 m 518 898 l 529 898 q 567 854 559 898 q 526 814 559 814 l 515 814 q 480 860 480 821 q 518 898 491 898 z "},"å":{"ha":836,"x_min":26,"x_max":720,"o":"m 523 694 l 529 694 q 652 652 596 694 q 685 694 652 694 l 687 694 q 720 659 715 694 l 720 35 q 687 0 715 0 l 685 0 q 652 33 652 5 l 652 500 q 591 612 652 583 q 531 626 556 626 l 523 626 q 142 475 286 626 q 94 352 94 410 l 94 342 q 296 111 94 205 q 525 68 406 68 l 529 68 q 564 31 559 68 q 531 0 564 6 l 525 0 q 113 151 277 0 q 26 340 26 243 l 26 354 q 226 626 26 511 q 523 694 368 694 m 429 1023 l 444 1023 q 564 925 527 1023 q 568 892 568 901 q 467 764 568 798 q 437 759 443 759 q 307 863 342 759 q 304 883 304 875 l 304 897 q 397 1018 304 980 q 429 1023 414 1023 m 360 890 q 420 817 360 837 q 435 814 427 817 q 513 883 493 814 l 513 894 q 451 967 513 944 l 433 967 q 360 905 380 967 l 360 890 z "},"æ":{"ha":1451,"x_min":31,"x_max":1360,"o":"m 725 172 l 725 35 q 692 0 720 0 l 690 0 q 657 33 657 5 l 657 500 q 595 612 657 583 q 536 626 561 626 l 528 626 q 146 475 291 626 q 99 352 99 410 l 99 342 q 301 111 99 205 q 530 68 411 68 l 534 68 q 568 31 564 68 q 536 0 568 6 l 530 0 q 117 151 281 0 q 31 340 31 243 l 31 354 q 231 626 31 511 q 528 694 373 694 l 534 694 q 657 652 601 694 q 690 694 657 694 l 692 694 q 725 659 720 694 l 725 500 q 868 615 775 563 q 1163 683 1006 683 l 1169 683 q 1344 578 1287 683 q 1360 496 1360 537 l 1360 494 q 1062 304 1360 334 q 1010 302 1028 302 q 838 399 897 302 q 823 473 823 439 l 823 479 q 858 510 823 502 q 891 469 888 510 q 959 380 891 404 q 1015 370 988 370 q 1265 436 1173 370 q 1293 496 1293 460 q 1227 603 1293 572 q 1171 615 1194 615 l 1163 615 q 792 475 935 615 q 734 339 734 409 l 734 333 q 957 92 734 186 q 1165 57 1061 57 l 1325 57 q 1360 22 1360 52 l 1360 20 q 1327 -11 1360 -5 l 1165 -11 q 732 162 896 -11 q 725 172 728 167 z "},"ç":{"ha":763,"x_min":31,"x_max":725,"o":"m 323 54 q 222 91 272 70 q 31 348 31 185 q 200 648 31 531 q 365 694 286 694 l 371 694 q 404 665 404 688 l 404 659 q 338 624 404 624 q 190 556 277 624 q 99 348 99 463 q 457 91 99 159 q 692 68 588 68 q 725 39 725 61 l 725 31 q 696 0 725 7 l 692 0 q 398 33 538 0 q 399 29 399 31 q 529 -85 431 -12 q 594 -253 594 -144 l 594 -272 q 475 -503 594 -424 q 380 -527 431 -527 l 363 -527 q 122 -383 193 -527 q 111 -321 111 -339 l 111 -294 q 146 -215 111 -215 l 155 -215 q 184 -245 177 -215 q 179 -302 179 -288 l 179 -313 q 315 -454 179 -419 q 377 -459 344 -459 q 526 -286 501 -459 l 526 -253 q 429 -93 526 -146 q 323 54 326 -20 z "},"è":{"ha":810,"x_min":25,"x_max":719,"o":"m 522 694 l 528 694 q 703 589 646 694 q 719 507 719 548 l 719 505 q 420 315 719 345 q 369 313 387 313 q 196 410 256 313 q 182 484 182 450 l 182 490 q 216 521 182 513 q 250 479 246 521 q 317 391 250 415 q 373 381 347 381 q 624 447 531 381 q 651 507 651 471 q 585 614 651 583 q 530 626 552 626 l 522 626 q 151 486 293 626 q 93 350 93 420 l 93 344 q 315 103 93 197 q 524 68 419 68 l 684 68 q 719 33 719 63 l 719 31 q 686 0 719 6 l 524 0 q 91 173 254 0 q 25 342 25 257 l 25 352 q 227 626 25 513 q 522 694 364 694 m 419 972 l 422 972 q 511 858 444 972 q 552 787 552 808 l 552 785 q 522 755 547 755 l 517 755 q 454 828 494 755 q 384 937 385 921 q 419 972 388 972 z "},"é":{"ha":810,"x_min":25,"x_max":719,"o":"m 522 694 l 528 694 q 703 589 646 694 q 719 507 719 548 l 719 505 q 420 315 719 345 q 369 313 387 313 q 196 410 256 313 q 182 484 182 450 l 182 490 q 216 521 182 513 q 250 479 246 521 q 317 391 250 415 q 373 381 347 381 q 624 447 531 381 q 651 507 651 471 q 585 614 651 583 q 530 626 552 626 l 522 626 q 151 486 293 626 q 93 350 93 420 l 93 344 q 315 103 93 197 q 524 68 419 68 l 684 68 q 719 33 719 63 l 719 31 q 686 0 719 6 l 524 0 q 91 173 254 0 q 25 342 25 257 l 25 352 q 227 626 25 513 q 522 694 364 694 m 526 972 l 529 972 q 564 937 564 968 q 448 760 564 922 q 431 755 439 755 l 426 755 q 396 785 396 760 l 396 787 q 461 896 396 806 q 526 972 506 972 z "},"ê":{"ha":811,"x_min":26,"x_max":720,"o":"m 523 694 l 529 694 q 704 589 647 694 q 720 507 720 548 l 720 505 q 422 315 720 345 q 370 313 388 313 q 197 410 257 313 q 183 484 183 450 l 183 490 q 218 521 183 513 q 251 479 248 521 q 319 391 251 415 q 374 381 348 381 q 625 447 532 381 q 652 507 652 471 q 587 614 652 583 q 531 626 553 626 l 523 626 q 152 486 294 626 q 94 350 94 420 l 94 344 q 317 103 94 197 q 525 68 420 68 l 685 68 q 720 33 720 63 l 720 31 q 687 0 720 6 l 525 0 q 92 173 256 0 q 26 342 26 257 l 26 352 q 228 626 26 513 q 523 694 366 694 m 452 964 l 468 964 q 557 850 490 964 q 598 779 598 800 l 598 777 q 568 747 593 747 l 563 747 q 503 814 541 747 l 460 874 l 373 752 q 357 747 364 747 l 351 747 q 321 777 321 751 l 321 779 q 387 888 321 798 q 452 964 431 964 z "},"ë":{"ha":811,"x_min":26,"x_max":720,"o":"m 523 694 l 529 694 q 704 589 647 694 q 720 507 720 548 l 720 505 q 422 315 720 345 q 370 313 388 313 q 197 410 257 313 q 183 484 183 450 l 183 490 q 218 521 183 513 q 251 479 248 521 q 319 391 251 415 q 374 381 348 381 q 625 447 532 381 q 652 507 652 471 q 587 614 652 583 q 531 626 553 626 l 523 626 q 152 486 294 626 q 94 350 94 420 l 94 344 q 317 103 94 197 q 525 68 420 68 l 685 68 q 720 33 720 63 l 720 31 q 687 0 720 6 l 525 0 q 92 173 256 0 q 26 342 26 257 l 26 352 q 228 626 26 513 q 523 694 366 694 m 387 856 l 390 856 q 431 821 431 849 l 431 807 q 395 772 422 772 l 382 772 q 347 807 347 781 l 347 815 q 387 856 351 856 m 555 856 l 566 856 q 604 812 596 856 q 564 772 596 772 l 553 772 q 517 818 517 779 q 555 856 528 856 z "},"ì":{"ha":363,"x_min":81,"x_max":250,"o":"m 152 692 l 161 692 q 191 651 191 687 l 191 43 q 161 0 188 0 l 152 0 q 123 28 123 8 l 123 663 q 152 692 132 692 m 117 963 l 119 963 q 209 849 141 963 q 250 779 250 800 l 250 776 q 220 746 245 746 l 214 746 q 152 819 191 746 q 81 928 83 912 q 117 963 85 963 z "},"í":{"ha":349,"x_min":68,"x_max":236,"o":"m 139 692 l 148 692 q 178 651 178 687 l 178 43 q 148 0 175 0 l 139 0 q 111 28 111 8 l 111 663 q 139 692 119 692 m 198 943 l 201 943 q 236 907 236 939 q 119 731 236 893 q 103 726 111 726 l 98 726 q 68 755 68 730 l 68 758 q 133 867 68 777 q 198 943 178 943 z "},"î":{"ha":361,"x_min":32,"x_max":309,"o":"m 162 692 l 171 692 q 201 651 201 687 l 201 43 q 171 0 198 0 l 162 0 q 134 28 134 8 l 134 663 q 162 692 142 692 m 162 960 l 178 960 q 268 846 200 960 q 309 775 309 796 l 309 772 q 279 743 304 743 l 273 743 q 214 810 251 743 l 170 870 l 83 748 q 67 743 75 743 l 62 743 q 32 772 32 747 l 32 775 q 97 884 32 794 q 162 960 142 960 z "},"ï":{"ha":359,"x_min":50,"x_max":307,"o":"m 169 692 l 178 692 q 208 651 208 687 l 208 43 q 178 0 205 0 l 169 0 q 140 28 140 8 l 140 663 q 169 692 149 692 m 90 826 l 93 826 q 134 791 134 819 l 134 777 q 98 742 125 742 l 85 742 q 50 777 50 751 l 50 785 q 90 826 54 826 m 258 826 l 269 826 q 307 783 299 826 q 267 742 299 742 l 256 742 q 220 788 220 749 q 258 826 231 826 z "},"ð":{"ha":846,"x_min":53,"x_max":744,"o":"m 398 986 l 411 986 q 439 958 439 982 l 439 951 q 342 845 439 933 l 332 832 q 634 581 420 776 q 744 295 744 434 l 744 279 q 631 56 744 159 q 420 0 551 0 l 376 0 q 72 185 143 0 q 53 279 53 238 l 53 295 q 203 622 53 467 q 389 691 297 691 l 411 691 q 286 788 368 732 q 176 691 197 691 q 144 728 147 691 q 229 823 144 738 q 72 907 184 857 q 66 926 66 918 l 66 930 q 100 961 66 956 q 276 870 121 961 q 398 986 393 986 m 122 302 l 122 292 q 119 289 122 289 l 122 283 l 122 270 q 197 119 122 201 q 361 69 258 69 l 386 69 q 398 66 393 69 q 411 69 404 69 l 436 69 q 662 217 613 69 q 675 270 675 245 l 675 283 q 677 286 675 286 l 675 292 l 675 302 q 574 543 675 420 q 414 622 496 622 l 382 622 q 138 393 226 622 q 122 302 122 339 z "},"ñ":{"ha":844,"x_min":106,"x_max":802,"o":"m 142 694 q 174 665 174 688 l 174 626 q 298 694 227 694 l 302 694 q 790 64 460 694 q 802 33 802 41 q 772 0 795 0 l 763 0 q 707 78 739 0 q 436 513 571 334 q 298 626 340 626 l 296 626 q 180 422 210 626 q 174 272 174 370 l 174 31 q 146 0 174 7 l 138 0 q 106 47 109 0 l 106 646 q 135 694 110 694 l 142 694 m 469 939 l 474 939 q 507 904 501 939 q 433 814 507 862 q 382 801 408 801 l 376 801 q 279 847 336 801 l 262 850 l 260 850 q 205 801 239 850 q 186 793 195 793 l 181 793 q 149 828 154 793 q 265 920 189 920 q 366 871 304 920 l 379 869 q 447 931 418 869 q 469 939 460 939 z "},"ò":{"ha":829,"x_min":33,"x_max":727,"o":"m 379 694 l 381 694 q 696 445 589 694 q 727 284 727 362 q 628 68 727 174 q 395 0 547 0 l 365 0 q 68 157 137 0 q 33 288 33 222 q 130 564 33 427 q 379 694 234 694 m 101 288 l 101 286 q 177 119 101 202 q 369 68 237 68 l 391 68 q 632 189 587 68 q 659 286 659 239 l 659 288 q 564 537 659 415 q 379 626 487 626 q 124 408 208 626 q 101 288 101 345 m 338 968 l 341 968 q 431 854 363 968 q 471 784 471 805 l 471 781 q 441 751 467 751 l 436 751 q 374 825 413 751 q 303 933 304 918 q 338 968 307 968 z "},"ó":{"ha":829,"x_min":33,"x_max":727,"o":"m 379 694 l 381 694 q 696 445 589 694 q 727 284 727 362 q 628 68 727 174 q 395 0 547 0 l 365 0 q 68 157 137 0 q 33 288 33 222 q 130 564 33 427 q 379 694 234 694 m 101 288 l 101 286 q 177 119 101 202 q 369 68 237 68 l 391 68 q 632 189 587 68 q 659 286 659 239 l 659 288 q 564 537 659 415 q 379 626 487 626 q 124 408 208 626 q 101 288 101 345 m 421 976 l 424 976 q 459 941 459 972 q 342 764 459 926 q 326 759 334 759 l 321 759 q 291 789 291 764 l 291 791 q 356 900 291 810 q 421 976 401 976 z "},"ô":{"ha":829,"x_min":33,"x_max":727,"o":"m 379 694 l 381 694 q 696 445 589 694 q 727 284 727 362 q 628 68 727 174 q 395 0 547 0 l 365 0 q 68 157 137 0 q 33 288 33 222 q 130 564 33 427 q 379 694 234 694 m 101 288 l 101 286 q 177 119 101 202 q 369 68 237 68 l 391 68 q 632 189 587 68 q 659 286 659 239 l 659 288 q 564 537 659 415 q 379 626 487 626 q 124 408 208 626 q 101 288 101 345 m 378 960 l 395 960 q 484 846 416 960 q 525 775 525 796 l 525 772 q 495 743 520 743 l 490 743 q 430 810 467 743 l 387 870 l 300 748 q 283 743 291 743 l 278 743 q 248 772 248 747 l 248 775 q 313 884 248 794 q 378 960 358 960 z "},"õ":{"ha":827,"x_min":31,"x_max":724,"o":"m 376 694 l 378 694 q 693 445 587 694 q 724 284 724 362 q 625 68 724 174 q 393 0 544 0 l 362 0 q 66 157 134 0 q 31 288 31 222 q 127 564 31 427 q 376 694 231 694 m 98 288 l 98 286 q 174 119 98 202 q 366 68 235 68 l 389 68 q 629 189 584 68 q 656 286 656 239 l 656 288 q 562 537 656 415 q 376 626 484 626 q 121 408 205 626 q 98 288 98 345 m 528 927 l 533 927 q 566 892 560 927 q 492 802 566 850 q 441 789 467 789 l 435 789 q 338 835 395 789 l 321 838 l 319 838 q 264 789 298 838 q 245 781 254 781 l 240 781 q 208 816 213 781 q 324 908 248 908 q 425 859 363 908 l 438 857 q 506 919 477 857 q 528 927 519 927 z "},"ö":{"ha":830,"x_min":34,"x_max":728,"o":"m 380 694 l 382 694 q 696 445 590 694 q 728 284 728 362 q 629 68 728 174 q 396 0 547 0 l 366 0 q 69 157 138 0 q 34 288 34 222 q 131 564 34 427 q 380 694 235 694 m 102 288 l 102 286 q 178 119 102 202 q 370 68 238 68 l 392 68 q 633 189 587 68 q 660 286 660 239 l 660 288 q 565 537 660 415 q 380 626 488 626 q 125 408 208 626 q 102 288 102 345 m 294 869 l 296 869 q 337 833 337 862 l 337 820 q 302 785 328 785 l 288 785 q 253 820 253 793 l 253 828 q 294 869 258 869 m 462 869 l 473 869 q 511 825 503 869 q 470 785 503 785 l 459 785 q 424 831 424 791 q 462 869 435 869 z "},"÷":{"ha":688,"x_min":64,"x_max":609,"o":"m 96 504 l 578 504 q 609 474 601 504 l 609 466 q 578 436 609 444 l 96 436 q 64 466 73 436 l 64 474 q 96 504 64 496 m 341 783 l 358 783 q 418 713 406 783 q 354 649 406 649 l 337 649 q 281 722 281 660 q 341 783 298 783 m 332 313 l 349 313 q 410 243 397 313 q 345 179 397 179 l 328 179 q 272 252 272 190 q 332 313 290 313 z "},"ø":{"ha":826,"x_min":31,"x_max":724,"o":"m 366 693 l 388 693 q 604 593 503 693 q 680 663 673 663 q 689 665 684 665 q 713 639 713 657 q 650 567 713 620 q 636 553 650 564 q 724 298 724 419 l 724 283 q 639 87 724 191 q 390 7 558 7 l 364 7 q 144 63 222 7 q 72 0 82 0 l 65 0 q 41 31 44 0 q 104 100 41 37 q 31 283 31 197 l 31 294 q 157 600 31 456 q 366 693 255 693 m 98 290 l 98 288 q 153 149 98 225 l 155 149 q 553 545 539 528 q 388 625 479 625 l 366 625 q 131 438 221 625 q 98 290 98 359 m 587 503 q 192 111 587 501 q 359 74 254 74 l 395 74 q 634 203 586 74 q 656 288 656 250 l 656 290 q 587 503 656 398 z "},"ù":{"ha":862,"x_min":52,"x_max":746,"o":"m 83 692 l 87 692 q 120 665 120 685 q 206 216 120 421 q 393 68 281 68 l 412 68 q 674 174 623 68 l 676 189 l 676 648 q 707 692 680 692 l 711 692 q 744 663 744 686 l 744 205 q 746 186 744 198 q 744 172 744 184 l 744 28 q 715 0 736 0 l 707 0 q 676 45 676 0 l 676 70 q 416 0 580 0 l 391 0 q 110 279 203 0 q 52 659 52 475 q 83 692 60 692 m 340 951 l 343 951 q 433 837 365 951 q 473 766 473 787 l 473 764 q 444 734 469 734 l 438 734 q 376 807 415 734 q 305 916 307 900 q 340 951 309 951 z "},"ú":{"ha":862,"x_min":52,"x_max":746,"o":"m 83 692 l 87 692 q 120 665 120 685 q 206 216 120 421 q 393 68 281 68 l 412 68 q 674 174 623 68 l 676 189 l 676 648 q 707 692 680 692 l 711 692 q 744 663 744 686 l 744 205 q 746 186 744 198 q 744 172 744 184 l 744 28 q 715 0 736 0 l 707 0 q 676 45 676 0 l 676 70 q 416 0 580 0 l 391 0 q 110 279 203 0 q 52 659 52 475 q 83 692 60 692 m 486 939 l 489 939 q 524 903 524 935 q 408 727 524 889 q 391 722 399 722 l 386 722 q 356 751 356 726 l 356 754 q 421 863 356 773 q 486 939 466 939 z "},"û":{"ha":862,"x_min":52,"x_max":746,"o":"m 83 692 l 87 692 q 120 665 120 685 q 206 216 120 421 q 393 68 281 68 l 412 68 q 674 174 623 68 l 676 189 l 676 648 q 707 692 680 692 l 711 692 q 744 663 744 686 l 744 205 q 746 186 744 198 q 744 172 744 184 l 744 28 q 715 0 736 0 l 707 0 q 676 45 676 0 l 676 70 q 416 0 580 0 l 391 0 q 110 279 203 0 q 52 659 52 475 q 83 692 60 692 m 407 951 l 423 951 q 513 837 445 951 q 553 766 553 787 l 553 764 q 524 734 549 734 l 518 734 q 458 802 496 734 l 415 861 l 328 739 q 312 734 319 734 l 307 734 q 277 764 277 739 l 277 766 q 342 875 277 785 q 407 951 387 951 z "},"ü":{"ha":863,"x_min":53,"x_max":747,"o":"m 83 692 l 87 692 q 121 665 121 685 q 207 216 121 421 q 393 68 281 68 l 412 68 q 675 174 624 68 l 677 189 l 677 648 q 707 692 680 692 l 712 692 q 745 663 745 686 l 745 205 q 747 186 745 198 q 745 172 745 184 l 745 28 q 716 0 736 0 l 707 0 q 677 45 677 0 l 677 70 q 416 0 581 0 l 391 0 q 111 279 203 0 q 53 659 53 475 q 83 692 60 692 m 323 856 l 326 856 q 366 821 366 849 l 366 807 q 331 772 357 772 l 317 772 q 282 807 282 781 l 282 815 q 323 856 287 856 m 491 856 l 502 856 q 540 812 532 856 q 499 772 532 772 l 488 772 q 453 818 453 779 q 491 856 464 856 z "},"ý":{"ha":884,"x_min":24,"x_max":747,"o":"m 54 693 l 63 693 q 97 635 97 693 q 268 270 107 498 q 555 52 449 52 l 565 52 q 670 229 646 52 q 674 394 674 279 l 674 640 q 704 693 674 693 l 717 693 q 747 659 739 693 l 745 633 l 745 347 q 650 -454 745 -191 q 394 -677 560 -677 l 373 -677 q 48 -446 139 -677 q 24 -315 24 -361 q 61 -281 24 -288 q 97 -341 97 -281 q 153 -499 113 -444 q 377 -606 232 -606 l 390 -606 q 652 -96 603 -606 q 661 20 661 -9 q 570 -18 616 -18 l 555 -18 q 168 289 392 -18 q 24 659 24 517 q 54 693 32 693 m 477 938 l 479 938 q 515 903 515 935 q 398 726 515 888 q 382 721 389 721 l 376 721 q 347 751 347 726 l 347 753 q 412 862 347 772 q 477 938 456 938 z "},"þ":{"ha":847,"x_min":107,"x_max":763,"o":"m 129 958 l 138 958 q 173 923 173 958 l 173 521 q 435 678 283 678 q 754 381 659 678 q 763 298 763 328 l 763 276 q 645 66 763 165 q 435 18 565 18 q 173 110 256 18 l 173 -323 q 138 -357 173 -357 l 129 -357 q 107 -336 123 -357 l 107 936 q 129 958 107 942 m 173 285 q 282 110 173 178 q 439 83 346 83 q 662 176 607 83 q 697 285 697 241 l 697 294 q 522 595 697 485 q 435 612 483 608 q 173 319 236 612 l 173 285 z "},"ÿ":{"ha":882,"x_min":22,"x_max":745,"o":"m 52 693 l 61 693 q 95 635 95 693 q 266 270 105 498 q 553 52 447 52 l 563 52 q 668 229 644 52 q 672 394 672 279 l 672 640 q 702 693 672 693 l 715 693 q 745 659 736 693 l 743 633 l 743 347 q 648 -454 743 -191 q 392 -677 558 -677 l 371 -677 q 46 -446 137 -677 q 22 -315 22 -361 q 59 -281 22 -288 q 95 -341 95 -281 q 151 -499 111 -444 q 375 -606 230 -606 l 388 -606 q 650 -96 601 -606 q 659 20 659 -9 q 568 -18 614 -18 l 553 -18 q 165 289 390 -18 q 22 659 22 517 q 52 693 30 693 m 196 874 l 244 923 q 261 931 253 931 q 279 922 269 931 l 326 872 q 333 855 333 863 q 325 837 333 846 l 278 786 q 261 774 267 774 q 244 783 252 774 l 193 841 q 186 857 186 849 q 196 874 186 865 m 444 874 l 492 923 q 509 931 500 931 q 527 922 516 931 l 574 872 q 581 855 581 863 q 572 838 581 846 l 526 786 q 509 774 514 774 q 492 783 499 774 l 440 842 q 434 857 434 849 q 444 874 434 865 z "},"ˆ":{"ha":694,"x_min":193,"x_max":470,"o":"m 323 949 l 340 949 q 429 836 361 949 q 470 765 470 786 l 470 762 q 440 732 465 732 l 435 732 q 375 800 412 732 l 332 860 l 245 738 q 229 732 236 732 l 223 732 q 193 762 193 737 l 193 765 q 258 873 193 784 q 323 949 303 949 z "},"ˇ":{"ha":694,"x_min":197,"x_max":474,"o":"m 344 733 l 328 733 q 238 847 306 733 q 197 918 197 897 l 197 920 q 227 950 202 950 l 233 950 q 292 882 255 950 l 336 823 l 422 945 q 439 950 431 950 l 444 950 q 474 920 474 945 l 474 918 q 409 809 474 899 q 344 733 364 733 z "},"ˉ":{"ha":694,"x_min":127,"x_max":549,"o":"m 151 831 l 525 831 q 549 799 543 831 l 549 791 q 525 758 549 766 l 151 758 q 127 791 133 758 l 127 799 q 151 831 127 823 z "},"˘":{"ha":694,"x_min":165,"x_max":524,"o":"m 355 733 l 339 733 q 168 842 265 733 l 165 855 q 195 888 173 888 l 206 888 q 266 842 217 888 q 350 801 315 801 q 475 888 389 801 l 494 888 q 524 855 516 888 q 410 747 524 821 q 355 733 376 733 z "},"˙":{"ha":694,"x_min":277,"x_max":422,"o":"m 286 874 l 333 923 q 342 929 337 927 q 351 931 347 931 q 360 929 355 931 q 368 923 364 927 l 416 871 q 421 865 420 869 q 422 855 422 861 q 420 845 422 849 q 415 837 419 841 l 367 785 q 356 776 359 778 q 351 774 353 774 q 340 776 345 774 q 333 782 336 778 l 282 841 q 278 847 279 844 q 277 857 277 851 q 279 865 277 861 q 286 874 281 869 z "},"˜":{"ha":694,"x_min":182,"x_max":541,"o":"m 503 931 l 508 931 q 541 896 535 931 q 467 806 541 854 q 416 793 442 793 l 410 793 q 313 839 370 793 l 296 842 l 294 842 q 239 793 273 842 q 220 785 229 785 l 215 785 q 182 820 188 785 q 299 912 223 912 q 399 863 338 912 l 413 861 q 481 923 452 861 q 503 931 494 931 z "},"˝":{"ha":694,"x_min":102,"x_max":561,"o":"m 248 808 l 216 755 q 189 714 200 726 q 165 698 178 702 q 149 694 157 695 l 146 692 l 140 695 q 127 700 134 696 q 108 718 115 706 l 106 719 l 106 720 q 103 728 104 724 q 102 741 102 734 q 105 759 102 749 q 127 794 111 775 l 208 887 l 239 940 q 266 982 255 970 q 290 998 277 994 q 307 1001 298 1000 l 309 1004 l 315 1000 q 328 996 321 999 q 347 978 340 989 l 349 977 l 349 976 q 352 967 351 972 q 353 955 353 961 q 351 937 353 946 q 328 901 345 920 l 248 808 m 455 808 l 423 755 q 397 714 408 726 q 373 698 386 702 q 356 694 364 695 l 353 692 l 348 695 q 334 700 341 696 q 315 718 322 706 l 314 719 l 314 720 q 311 728 312 724 q 309 741 309 734 q 313 759 309 749 q 334 794 318 775 l 415 887 l 447 940 q 473 982 463 970 q 497 998 484 994 q 514 1001 506 1000 l 517 1004 l 522 1000 q 536 996 529 999 q 555 978 548 989 l 556 977 l 556 976 q 559 967 558 972 q 561 955 561 961 q 558 937 561 946 q 536 901 552 920 l 455 808 z "},"–":{"ha":751,"x_min":26,"x_max":715,"o":"m 65 368 l 675 368 q 715 338 705 368 l 715 330 q 675 300 715 308 l 65 300 q 26 330 36 300 l 26 338 q 65 368 26 361 z "},"—":{"ha":1389,"x_min":9,"x_max":1380,"o":"m 87 348 l 1301 348 q 1380 318 1360 348 l 1380 310 q 1301 280 1380 288 l 87 280 q 9 310 28 280 l 9 318 q 87 348 9 340 z "},"‘":{"ha":378,"x_min":142,"x_max":279,"o":"m 246 822 l 243 760 q 238 711 242 726 q 224 686 234 695 q 211 675 218 680 l 210 671 l 203 672 q 189 670 197 670 q 164 677 175 670 l 162 677 l 162 679 q 155 685 158 681 q 142 713 144 695 q 142 722 142 717 q 146 754 142 736 l 175 873 l 178 935 q 183 985 179 969 q 197 1010 187 1000 q 210 1020 203 1016 l 211 1024 l 218 1023 q 232 1025 224 1025 q 257 1018 246 1025 l 259 1018 l 259 1017 q 267 1010 263 1015 q 279 983 277 1000 q 279 973 279 979 q 275 941 279 959 l 246 822 z "},"’":{"ha":378,"x_min":156,"x_max":265,"o":"m 251 829 l 259 768 q 265 724 265 739 l 265 720 q 256 692 264 703 q 245 679 251 684 l 245 675 l 238 674 q 224 669 232 671 q 215 669 220 669 q 199 671 207 669 l 197 671 l 197 672 q 189 677 193 674 q 170 701 176 685 q 165 737 165 715 l 165 743 l 170 866 l 162 927 q 156 972 156 956 q 157 977 156 974 q 165 1004 157 992 q 176 1017 170 1011 l 176 1021 l 183 1021 q 197 1026 189 1025 q 206 1027 201 1027 q 222 1024 214 1027 l 224 1024 l 224 1023 q 233 1019 229 1021 q 251 994 245 1010 q 256 958 256 980 l 256 953 l 251 829 z "},"‚":{"ha":378,"x_min":117,"x_max":254,"o":"m 221 -26 l 218 -88 q 213 -138 217 -122 q 199 -163 209 -153 q 186 -173 193 -169 l 185 -177 l 178 -176 q 164 -178 172 -178 q 139 -171 150 -178 l 137 -171 l 137 -170 q 130 -163 133 -168 q 117 -136 119 -153 q 117 -126 117 -132 q 121 -94 117 -112 l 150 25 l 153 87 q 158 136 154 121 q 172 161 162 152 q 185 172 178 168 l 186 176 l 193 175 q 207 177 199 177 q 232 170 221 177 l 234 170 l 234 168 q 241 162 238 166 q 254 135 252 152 q 254 125 254 130 q 250 93 254 111 l 221 -26 z "},"“":{"ha":617,"x_min":142,"x_max":473,"o":"m 246 822 l 243 760 q 238 711 242 726 q 224 686 234 695 q 211 675 218 680 l 210 671 l 203 672 q 189 670 197 670 q 164 677 175 670 l 162 677 l 162 679 q 155 685 158 681 q 142 713 144 695 q 142 722 142 717 q 146 754 142 736 l 175 873 l 178 935 q 183 985 179 969 q 197 1010 187 1000 q 210 1020 203 1016 l 211 1024 l 218 1023 q 232 1025 224 1025 q 257 1018 246 1025 l 259 1018 l 259 1017 q 267 1010 263 1015 q 279 983 277 1000 q 279 973 279 979 q 275 941 279 959 l 246 822 m 456 827 l 460 764 q 463 729 463 743 q 462 715 463 721 q 450 688 459 699 q 438 677 445 682 l 437 673 l 431 673 q 417 669 425 669 q 410 668 414 668 q 391 673 401 668 l 389 673 l 389 674 q 382 680 385 676 q 366 706 370 689 q 363 730 363 716 q 364 747 363 738 l 380 869 l 376 931 q 374 966 374 952 q 375 981 374 975 q 386 1007 377 996 q 398 1019 391 1014 l 399 1023 l 405 1023 q 419 1027 412 1026 q 426 1027 422 1027 q 445 1023 436 1027 l 447 1023 l 447 1021 q 454 1016 451 1019 q 471 990 467 1006 q 473 965 473 979 q 472 949 473 958 l 456 827 z "},"”":{"ha":617,"x_min":159,"x_max":484,"o":"m 250 829 l 258 767 q 262 725 262 741 l 262 718 q 253 691 261 702 q 242 678 248 684 l 241 674 l 235 674 q 221 669 229 670 q 213 668 217 668 q 195 671 204 668 l 193 671 l 193 673 q 185 677 189 675 q 168 703 173 686 q 163 738 163 717 l 163 744 l 171 867 l 163 928 q 159 970 159 955 l 159 977 q 168 1004 160 994 q 179 1017 173 1012 l 180 1021 l 186 1021 q 200 1027 193 1025 q 208 1027 204 1027 q 226 1024 217 1027 l 228 1024 l 228 1023 q 236 1018 232 1021 q 254 994 248 1010 q 258 958 258 979 l 258 951 l 250 829 m 460 833 l 474 773 q 484 725 484 741 l 484 722 q 478 696 484 707 q 469 683 474 689 l 469 679 l 463 677 q 449 671 456 673 q 435 669 442 669 q 423 671 429 669 l 421 671 l 421 671 q 412 675 416 673 q 392 699 399 683 q 383 739 385 714 l 376 862 l 362 922 q 352 970 353 954 l 352 973 q 358 999 352 988 q 368 1013 362 1006 l 368 1017 l 374 1018 q 387 1024 380 1022 q 401 1026 394 1026 q 413 1025 407 1026 l 415 1025 l 415 1024 q 424 1020 420 1022 q 444 997 437 1013 q 453 956 451 981 l 460 833 z "},"„":{"ha":617,"x_min":142,"x_max":473,"o":"m 246 -132 l 243 -194 q 238 -243 242 -228 q 224 -269 234 -259 q 211 -279 218 -275 l 210 -283 l 203 -282 q 189 -284 197 -284 q 164 -277 175 -284 l 162 -277 l 162 -275 q 155 -269 158 -273 q 142 -241 144 -259 q 142 -232 142 -237 q 146 -200 142 -218 l 175 -81 l 178 -19 q 183 31 179 15 q 197 56 187 46 q 210 66 203 62 l 211 70 l 218 69 q 232 71 224 71 q 257 64 246 71 l 259 64 l 259 62 q 267 56 263 60 q 279 29 277 46 q 279 19 279 24 q 275 -13 279 5 l 246 -132 m 456 -127 l 460 -190 q 463 -225 463 -211 q 462 -239 463 -233 q 450 -266 459 -255 q 438 -277 445 -273 l 437 -281 l 431 -281 q 417 -286 425 -285 q 410 -286 414 -286 q 391 -281 401 -286 l 389 -281 l 389 -280 q 382 -275 385 -278 q 366 -248 370 -265 q 363 -224 363 -238 q 364 -208 363 -216 l 380 -85 l 376 -23 q 374 12 374 -2 q 375 26 374 20 q 386 53 377 42 q 398 64 391 60 l 399 68 l 405 68 q 419 73 412 72 q 426 73 422 73 q 445 68 436 73 l 447 68 l 447 67 q 454 62 451 65 q 471 36 467 52 q 473 11 473 25 q 472 -5 473 3 l 456 -127 z "},"•":{"ha":973,"x_min":131,"x_max":854,"o":"m 481 969 l 504 969 q 828 760 708 969 q 854 635 854 686 l 854 616 q 618 294 854 404 q 498 275 547 275 l 488 275 q 163 475 280 275 q 131 616 131 547 l 131 635 q 163 772 131 694 l 170 772 q 167 701 167 724 l 167 661 q 330 481 190 481 l 363 481 q 520 625 479 481 l 520 675 q 399 903 520 753 q 376 949 389 918 q 481 969 418 969 m 344 763 q 452 677 420 763 l 452 652 q 363 547 452 572 l 330 547 q 249 599 287 547 q 235 652 235 627 l 235 665 q 317 760 235 728 q 344 763 330 763 m 573 655 q 684 547 573 559 q 786 635 758 547 l 786 665 q 707 756 786 728 q 684 760 703 760 l 668 760 q 576 681 606 760 q 573 655 573 668 m 288 740 l 288 736 l 292 736 q 334 747 307 747 q 439 638 425 747 q 429 602 439 627 l 429 599 l 432 599 q 445 652 445 633 q 353 753 445 734 l 334 753 q 288 740 321 753 m 677 756 q 779 655 779 741 l 779 648 q 760 593 779 610 l 760 596 q 769 645 769 625 q 688 743 769 718 l 654 743 q 616 733 646 743 q 677 756 640 756 m 389 442 l 389 439 q 445 393 427 393 l 452 393 q 494 406 486 406 l 498 406 q 534 393 516 406 l 547 393 q 602 439 569 393 l 599 439 q 547 412 571 412 q 498 432 507 432 q 439 412 444 412 q 389 442 416 418 m 138 206 l 167 206 q 174 199 174 205 l 174 121 l 337 121 l 425 206 l 478 206 l 478 203 l 376 98 q 471 3 380 98 l 471 0 l 419 0 l 337 79 l 174 79 l 174 7 q 167 0 174 0 l 138 0 q 131 7 131 0 l 131 199 q 138 206 132 206 m 520 206 l 553 206 q 559 199 559 205 l 559 7 q 553 0 559 0 l 520 0 q 514 7 514 0 l 514 199 q 520 206 515 206 m 766 206 q 786 180 786 199 l 786 170 q 779 163 786 163 l 772 174 l 772 190 l 763 190 q 747 20 747 190 l 756 13 l 763 13 l 763 20 l 772 20 l 772 16 q 749 0 768 0 l 736 16 l 736 52 q 760 203 736 203 l 766 206 m 609 203 l 612 203 q 629 163 629 189 l 629 118 q 612 52 629 100 q 609 36 612 36 l 612 29 l 609 23 q 612 13 612 16 l 606 9 q 599 23 599 18 q 602 199 599 77 l 609 203 m 684 203 l 701 203 q 707 197 707 202 q 694 190 699 190 l 694 88 q 697 26 694 62 q 694 16 694 20 l 701 16 l 701 9 q 694 3 701 3 l 677 3 q 671 9 671 3 q 684 16 679 16 l 684 174 l 688 190 q 677 197 677 190 q 684 203 679 203 m 842 203 q 854 180 854 197 l 854 163 l 851 131 l 844 131 l 844 151 l 848 170 q 844 190 844 175 l 842 190 q 831 154 831 190 l 831 141 q 854 36 854 68 q 835 0 854 10 l 825 0 q 812 23 812 5 l 812 46 q 822 88 812 88 l 825 82 l 825 13 l 838 13 l 844 36 q 822 134 844 61 l 822 157 q 842 203 822 195 m 612 180 l 612 92 l 616 92 q 618 141 618 124 l 618 157 l 616 180 l 612 180 z "},"‹":{"ha":428,"x_min":119,"x_max":336,"o":"m 119 312 l 119 328 q 233 418 119 350 q 303 458 282 458 l 306 458 q 336 429 336 454 l 336 423 q 268 363 336 401 l 208 320 l 330 233 q 336 217 336 224 l 336 212 q 306 182 331 182 l 303 182 q 195 247 284 182 q 119 312 119 292 z "},"›":{"ha":428,"x_min":115,"x_max":332,"o":"m 332 328 l 332 312 q 218 222 332 290 q 147 182 168 182 l 144 182 q 115 212 115 186 l 115 217 q 182 277 115 239 l 242 320 l 120 407 q 115 423 115 416 l 115 429 q 144 458 119 458 l 147 458 q 256 393 166 458 q 332 328 332 349 z "},"⁄":{"ha":744,"x_min":13,"x_max":626,"o":"m 32 77 l 559 926 q 614 968 585 967 l 621 964 q 626 952 626 961 q 607 897 626 935 l 79 47 q 24 5 54 6 l 18 9 q 13 22 13 12 q 32 77 13 39 z "},"∕":{"ha":744,"x_min":13,"x_max":626,"o":"m 32 77 l 559 926 q 614 968 585 967 l 621 964 q 626 952 626 961 q 607 897 626 935 l 79 47 q 24 5 54 6 l 18 9 q 13 22 13 12 q 32 77 13 39 z "},"₤":{"ha":688,"x_min":0,"x_max":524,"o":"m 357 829 l 368 829 q 398 793 393 829 q 322 761 398 761 q 144 554 144 709 l 144 532 q 153 469 144 509 l 422 469 q 453 439 453 463 l 453 434 q 422 404 448 404 l 186 404 l 186 401 q 218 352 216 352 l 425 352 q 453 322 448 352 l 453 317 q 417 286 453 291 l 251 286 q 270 194 270 239 l 270 182 q 235 68 270 117 l 235 66 l 488 66 q 524 35 524 60 l 524 30 q 494 0 519 0 l 115 0 q 79 22 89 0 l 79 38 q 144 77 79 64 q 205 182 205 111 l 205 186 q 180 286 205 234 l 35 286 q 0 317 0 291 l 0 319 q 27 352 3 352 l 136 352 l 136 355 q 106 404 111 403 l 30 404 q 0 434 0 408 l 0 439 q 30 469 5 469 l 85 469 l 77 543 q 240 802 77 718 q 357 829 296 829 z "},"€":{"ha":1054,"x_min":22,"x_max":1006,"o":"m 572 829 l 583 829 q 611 801 611 823 l 611 795 q 558 765 611 765 q 325 651 443 765 q 244 473 244 541 l 567 473 q 611 442 611 471 l 611 437 q 564 406 611 406 l 239 406 l 239 404 q 247 364 239 364 l 578 364 q 611 331 611 364 q 581 300 607 300 l 269 300 q 494 142 345 191 q 979 64 728 64 q 1006 33 1000 64 l 1006 28 q 979 0 1001 0 q 197 300 328 21 l 52 300 q 22 331 22 305 l 22 336 q 55 364 22 361 l 178 364 l 175 384 l 175 406 l 69 406 q 22 437 22 406 l 22 442 q 66 473 22 471 l 178 473 q 264 675 186 568 q 572 829 395 829 z "},"™":{"ha":1139,"x_min":43,"x_max":1084,"o":"m 534 970 q 564 941 564 970 l 564 937 q 374 810 564 890 q 334 795 334 804 l 334 479 q 305 450 334 450 l 302 450 q 273 479 273 450 l 273 784 q 102 770 171 770 l 73 770 q 43 799 43 770 l 43 802 q 69 831 46 831 q 524 970 374 831 l 534 970 m 1051 970 l 1055 970 q 1084 941 1084 970 l 1084 595 q 1047 562 1084 566 q 1022 584 1031 568 l 1022 773 l 1018 773 q 822 562 921 562 q 625 708 738 562 l 625 479 q 596 450 625 450 l 593 450 q 564 479 564 450 l 564 824 q 596 857 568 857 q 680 741 618 857 q 822 628 768 628 l 825 628 q 1029 962 901 628 q 1051 970 1041 970 z "},"−":{"ha":688,"x_min":127,"x_max":549,"o":"m 151 517 l 525 517 q 549 485 543 517 l 549 477 q 525 444 549 452 l 151 444 q 127 477 133 444 l 127 485 q 151 517 127 509 z "},"≈":{"ha":688,"x_min":68,"x_max":538,"o":"m 489 684 l 496 684 q 538 638 532 684 q 442 520 538 583 q 374 503 409 503 l 368 503 q 239 563 315 503 l 218 566 l 214 566 q 142 503 188 566 q 118 492 130 492 l 111 492 q 68 538 75 492 q 221 659 121 659 q 353 595 273 659 l 371 591 q 460 673 422 591 q 489 684 478 684 m 489 481 l 496 481 q 538 435 532 481 q 442 317 538 379 q 374 299 409 299 l 368 299 q 239 359 315 299 l 218 363 l 214 363 q 142 299 188 363 q 118 288 130 288 l 111 288 q 68 334 75 288 q 221 456 121 456 q 353 392 273 456 l 371 388 q 460 470 422 388 q 489 481 478 481 z "},"œ":{"ha":1376,"x_min":28,"x_max":1285,"o":"m 402 696 q 662 530 530 696 q 1088 696 812 696 l 1109 696 q 1285 540 1249 696 l 1285 488 q 922 311 1285 336 q 745 488 745 346 l 745 498 q 766 519 748 519 l 787 519 q 828 426 808 519 q 932 385 871 385 l 953 385 q 1223 509 1223 403 q 1088 633 1223 615 q 693 457 827 633 q 724 301 724 363 l 724 270 l 714 197 q 1140 62 873 62 l 1264 62 q 1285 41 1285 59 l 1285 21 q 1264 0 1285 0 l 1057 0 q 672 135 880 0 l 672 125 q 423 0 588 0 l 330 0 q 28 270 73 0 l 28 301 q 319 696 28 583 l 402 696 m 91 280 q 330 62 91 104 l 382 62 q 662 291 662 81 q 371 633 602 633 q 91 280 151 633 z "}}}
